<?xml version="1.0" encoding="UTF-8"?>
<svg version="1.1" xmlns="http://www.w3.org/2000/svg" width="500" height="500">
<path d="M0 0 C1.87501217 0.01970734 3.7507116 -0.00680409 5.625 -0.0625 C10.29412907 -0.11294677 14.22258344 0.39272583 18.71484375 1.55859375 C22.28313581 2.24785358 25.79712612 2.07871012 29.41796875 2.0078125 C33.34074634 1.99594328 37.12704638 2.46926571 40.90234375 3.5390625 C43.23445718 4.05151945 45.24138751 4.02678842 47.625 3.9375 C52.19869411 3.87678725 56.27719467 4.55814139 60.7265625 5.5546875 C63.5133787 6.10055871 66.16909993 6.14899474 69 6 C69 6.66 69 7.32 69 8 C69.66 8 70.32 8 71 8 C71 8.66 71 9.32 71 10 C71.66 10 72.32 10 73 10 C73.16873478 11.43725871 73.33490737 12.87481838 73.5 14.3125 C73.5928125 15.11300781 73.685625 15.91351563 73.78125 16.73828125 C74 19 74 19 74 22 C74.33 21.34 74.66 20.68 75 20 C75.66 20 76.32 20 77 20 C77 20.66 77 21.32 77 22 C78.98 22.495 78.98 22.495 81 23 C82.31818182 30.90909091 82.31818182 30.90909091 80 35 C80 35.969375 80 36.93875 80 37.9375 C80 41.19685353 79.2206117 43.02475897 78 46 C78 46.825 78 47.65 78 48.5 C78 51 78 51 77.0625 53.25 C75.81308361 56.4837836 75.53940238 59.43529584 75.2109375 62.8671875 C74.84464779 66.57078341 74.01827984 69.93978406 72.9375 73.5 C71.88166164 76.7787986 71.88166164 76.7787986 72.0625 79.375 C71.99739444 82.10943343 71.41858808 83.87827089 70.5 86.4375 C69.19722227 90.09506376 68.69843024 93.07959313 69 97 C68.34 97 67.68 97 67 97 C67.02320313 97.67546875 67.04640625 98.3509375 67.0703125 99.046875 C67.08835937 99.93890625 67.10640625 100.8309375 67.125 101.75 C67.14820313 102.63171875 67.17140625 103.5134375 67.1953125 104.421875 C66.98926301 107.14172825 66.26264592 108.62502315 65 111 C65.04125 111.94875 65.0825 112.8975 65.125 113.875 C64.93097104 118.72572396 62.40330905 121.38879332 59.3125 124.9375 C53.65860813 127.5352341 46.22244779 124.68693841 40.5625 122.9375 C37.43569556 122.11465673 35.17974498 121.91406095 32 122 C30.65667272 121.70955086 29.31774196 121.39044206 28 121 C28 120.34 28 119.68 28 119 C27.154375 119.226875 26.30875 119.45375 25.4375 119.6875 C21.15564873 120.07675921 18.88477282 118.73427358 15 117 C13.00039988 116.960008 10.99952758 116.95653201 9 117 C7.8553125 116.5359375 7.8553125 116.5359375 6.6875 116.0625 C3.49858074 114.80176448 0.59362624 114.53635177 -2.80078125 114.2109375 C-8.65723226 113.64921751 -14.69919936 112.65040032 -20 110 C-19.34 108.35 -18.68 106.7 -18 105 C-16.02 105.33 -14.04 105.66 -12 106 C-11.34 104.35 -10.68 102.7 -10 101 C-3.45797213 100.80075042 2.44768517 100.91419976 8.7890625 102.5625 C11.25718604 103.05089194 13.48697967 103.06185896 16 103 C19.27254278 102.91993779 21.97145688 103.1366726 25.125 104 C29.56402055 105.1117547 33.88438739 105.25999127 38.4375 105.3125 C39.1485791 105.32990234 39.8596582 105.34730469 40.59228516 105.36523438 C42.85129262 105.39888206 42.85129262 105.39888206 46 105 C48.02350324 101.96474514 48.32124018 100.80573798 48.625 97.3125 C48.69976562 96.50425781 48.77453125 95.69601562 48.8515625 94.86328125 C48.92503906 93.94095703 48.92503906 93.94095703 49 93 C49.66 93 50.32 93 51 93 C50.97679688 92.32453125 50.95359375 91.6490625 50.9296875 90.953125 C50.91164063 90.06109375 50.89359375 89.1690625 50.875 88.25 C50.85179688 87.36828125 50.82859375 86.4865625 50.8046875 85.578125 C51.01085407 82.85672627 51.73056641 81.37394076 53 79 C53 78.030625 53 77.06125 53 76.0625 C53 72.76410058 53.776054 71.02386659 55 68 C55.38812999 65.32621564 55.7239295 62.68401874 56 60 C56.76256983 53.5726257 56.76256983 53.5726257 58.0625 50.4375 C59.18322891 47.95886698 59.18322891 47.95886698 59 44.9375 C59 41.81536471 59.64497009 40.71005983 61 38 C61 37.030625 61 36.06125 61 35.0625 C61 31.80314647 61.7793883 29.97524103 63 27 C63 26.195625 63 25.39125 63 24.5625 C63 21.40230185 63.90476731 18.94343785 65 16 C57.70497179 13.97360327 50.6414331 13 43.0625 13 C40 13 40 13 37 12 C36.21625 12 35.4325 12 34.625 12 C30.82777094 12 27.58980621 11.19660207 24 10 C21.91665571 9.98029269 19.83269281 10.00680008 17.75 10.0625 C12.62888223 10.11365434 8.81900242 9.57355181 4 8 C-0.16178439 7.7091007 -0.16178439 7.7091007 -4 9 C-3.67 9.99 -3.34 10.98 -3 12 C-3.309375 12.763125 -3.61875 13.52625 -3.9375 14.3125 C-5.18765922 16.99301628 -5.18765922 16.99301628 -5 20.0625 C-5 23.1650939 -5.61741068 24.32123319 -7 27 C-6.979375 27.721875 -6.95875 28.44375 -6.9375 29.1875 C-6.99968952 31.98602832 -7.5050094 33.70331958 -8.4375 36.3125 C-9.95714731 40.57179316 -10.51947107 44.51506331 -11 49 C-11.495 49.495 -11.495 49.495 -12 50 C-11.979375 51.093125 -11.95875 52.18625 -11.9375 53.3125 C-11.99818536 56.8929364 -12.40016561 58.00031051 -14 61 C-13.979375 61.763125 -13.95875 62.52625 -13.9375 63.3125 C-14.02525588 67.08600276 -15.24907013 69.68573989 -17 73 C-18.9375 74.5625 -18.9375 74.5625 -21 75 C-23.12890625 74.02734375 -23.12890625 74.02734375 -25 73 C-24.58095265 67.93834917 -23.96425181 63.71420434 -22 59 C-22 58.175 -22 57.35 -22 56.5 C-22 54 -22 54 -21.0625 51.75 C-19.81356803 48.5174702 -19.53980799 45.56717821 -19.2109375 42.13671875 C-18.8668465 38.65120436 -18.19694018 35.5415855 -17 32.25 C-15.74785334 28.18052337 -15.39942184 24.22351609 -15 20 C-14.41589267 15.16025354 -13.57257812 10.62522976 -12 6 C-11.34 5.67 -10.68 5.34 -10 5 C-10 4.34 -10 3.68 -10 3 C-6.63352939 0.09787016 -4.43286447 -1.47762149 0 0 Z M71 26 C71.33 28.31 71.66 30.62 72 33 C72.69159401 31.15274948 72.69159401 31.15274948 73 29 C72.34 28.01 71.68 27.02 71 26 Z M69 35 C68.79375 36.27875 68.5875 37.5575 68.375 38.875 C68.25898438 39.59429687 68.14296875 40.31359375 68.0234375 41.0546875 C68.01570313 41.69664062 68.00796875 42.33859375 68 43 C68.66 43.66 69.32 44.32 70 45 C70.79953138 41.71303767 71.09658936 40.28976808 70 37 C70.66 36.67 71.32 36.34 72 36 C71.01 35.67 70.02 35.34 69 35 Z M68 45 C68 45.99 68 46.98 68 48 C68.66 47.34 69.32 46.68 70 46 C69.34 45.67 68.68 45.34 68 45 Z M67 48 C66.3121764 50.35367713 66.3121764 50.35367713 66 53 C66.99 54.485 66.99 54.485 68 56 C68.67801034 53.09926819 68.67801034 53.09926819 69 50 C68.34 49.34 67.68 48.68 67 48 Z M65 56 C65.33 57.32 65.66 58.64 66 60 C66.33 58.68 66.66 57.36 67 56 C66.34 56 65.68 56 65 56 Z M64 60 C64.33 60.99 64.66 61.98 65 63 C65.66 62.34 66.32 61.68 67 61 C66.01 60.67 65.02 60.34 64 60 Z M65 63 C62.84694043 66.85756507 61.60746746 69.55129785 62 74 C64.0343459 72.58480285 64.90410393 71.45017877 65.421875 69.01953125 C65.66273952 67.01823046 65.83532741 65.0090056 66 63 C65.67 63 65.34 63 65 63 Z M63 75 C62.34 75.66 61.68 76.32 61 77 C61.66 77.66 62.32 78.32 63 79 C63.33 77.68 63.66 76.36 64 75 C63.67 75 63.34 75 63 75 Z M61 79 C60.67 80.65 60.34 82.3 60 84 C60.66 83.67 61.32 83.34 62 83 C61.67 81.68 61.34 80.36 61 79 Z M61 85 C58.64089647 89.2637281 58.64089647 89.2637281 58 94 C58.66 94 59.32 94 60 94 C61.68630119 90.48966871 61.68630119 90.48966871 61.625 86.6875 C61.41875 86.130625 61.2125 85.57375 61 85 Z M59 95 C56.5943192 98.94075703 56.5943192 98.94075703 56.3125 103.375 C56.539375 103.91125 56.76625 104.4475 57 105 C59.4056808 101.05924297 59.4056808 101.05924297 59.6875 96.625 C59.460625 96.08875 59.23375 95.5525 59 95 Z M57 105 C56.0875592 106.11157283 55.19524988 107.23970488 54.3125 108.375 C51.47812369 111.70201791 49.46612764 113.36198177 45 114 C41.4375 113.125 41.4375 113.125 38 112 C35.20755955 111.83071457 35.20755955 111.83071457 33 112 C33.33 112.66 33.66 113.32 34 114 C35.32 114 36.64 114 38 114 C38 114.66 38 115.32 38 116 C43.95192611 116.74317106 43.95192611 116.74317106 49.9375 117 C52 117 52 117 54 118 C56.44697666 113.63799813 57.50269348 109.97306516 58 105 C57.67 105 57.34 105 57 105 Z M-7 106 C-7.99 106.66 -8.98 107.32 -10 108 C-8.68 108 -7.36 108 -6 108 C-6.33 107.34 -6.66 106.68 -7 106 Z M2 110 C5.465 109.505 5.465 109.505 9 109 C9 108.67 9 108.34 9 108 C5.04542152 107.65176193 5.04542152 107.65176193 2 110 Z M14 112 C16.64 111.67 19.28 111.34 22 111 C22.33 111.66 22.66 112.32 23 113 C23.66 112.34 24.32 111.68 25 111 C20.93768811 108.96884405 17.66684375 109.5554375 14 112 Z M27 111 C26.34 111.66 25.68 112.32 25 113 C27.31 113.33 29.62 113.66 32 114 C30.62514468 112.45833358 30.62514468 112.45833358 29 111 C28.34 111 27.68 111 27 111 Z " fill="#FC7B63" transform="translate(61,187)"/>
<path d="M0 0 C3.75872019 1.05507935 6.78234969 1.12554812 10.64453125 0.97265625 C12.5625 1 12.5625 1 14.5625 2 C18.87498953 2.80232363 23.21887584 3.39189262 27.5625 4 C28.0575 7.465 28.0575 7.465 28.5625 11 C27.5725 11.33 26.5825 11.66 25.5625 12 C26.0575 13.485 26.0575 13.485 26.5625 15 C20.45138889 21.11111111 20.45138889 21.11111111 14.47265625 21.1328125 C12.5625 21 12.5625 21 10.5625 20 C9.02226004 19.93049459 7.47915012 19.91547643 5.9375 19.9375 C5.12023437 19.94652344 4.30296875 19.95554688 3.4609375 19.96484375 C2.83445312 19.97644531 2.20796875 19.98804688 1.5625 20 C1.5625 19.34 1.5625 18.68 1.5625 18 C1.01078125 18.16371094 0.4590625 18.32742187 -0.109375 18.49609375 C-2.70364007 19.05760414 -5.03585411 19.09739008 -7.6875 19.0625 C-8.57953125 19.05347656 -9.4715625 19.04445312 -10.390625 19.03515625 C-11.06609375 19.02355469 -11.7415625 19.01195312 -12.4375 19 C-11.9425 20.485 -11.9425 20.485 -11.4375 22 C-10.7775 22.33 -10.1175 22.66 -9.4375 23 C-9.4375 23.66 -9.4375 24.32 -9.4375 25 C-8.4475 24.67 -7.4575 24.34 -6.4375 24 C-4.2109375 24.70703125 -4.2109375 24.70703125 -1.8125 25.8125 C-1.01585937 26.16957031 -0.21921875 26.52664062 0.6015625 26.89453125 C2.5625 28 2.5625 28 3.5625 30 C4.449375 30.28875 5.33625 30.5775 6.25 30.875 C11.12464394 32.53053945 14.44192116 34.7909544 17.9375 38.5625 C20.22201335 43.39512439 19.89920847 47.74360662 19.5625 53 C18.9025 53 18.2425 53 17.5625 53 C17.645 53.7425 17.7275 54.485 17.8125 55.25 C17.48395074 58.8640419 16.26856103 59.66978078 13.5625 62 C12.881875 62.70125 12.20125 63.4025 11.5 64.125 C8.33556421 67.18735721 7.07305426 68 2.5625 68 C2.5625 68.66 2.5625 69.32 2.5625 70 C1.95921875 70.13277344 1.3559375 70.26554687 0.734375 70.40234375 C-0.46445313 70.66724609 -0.46445313 70.66724609 -1.6875 70.9375 C-2.87085937 71.19853516 -2.87085937 71.19853516 -4.078125 71.46484375 C-5.57706274 71.80483459 -7.07057668 72.17053357 -8.5546875 72.5703125 C-10.4375 73 -10.4375 73 -13.3125 72.9375 C-16.43552469 72.83172519 -16.43552469 72.83172519 -19.1875 74 C-22.28315869 74.95251037 -24.25152494 75.07631078 -27.4375 75 C-30.55136969 74.92586025 -32.44424781 75.00224927 -35.4375 76 C-39.13201603 77.23150534 -42.26520907 77.03123727 -46.125 76.93359375 C-48.54347756 76.86558997 -48.54347756 76.86558997 -51 78.0625 C-54.82260465 79.53273256 -58.46526087 78.64040457 -62.4375 78 C-64.24105894 71.38695055 -62.568443 64.39282899 -60.4375 58 C-57.875 56.8125 -57.875 56.8125 -55.4375 56 C-55.4375 55.34 -55.4375 54.68 -55.4375 54 C-54.880625 54.02320313 -54.32375 54.04640625 -53.75 54.0703125 C-49.79076074 54.16394316 -46.26022618 54.09440951 -42.4375 53 C-39.55396674 52.1810083 -37.12141107 51.91484445 -34.125 52 C-29.60670457 52.12464263 -25.495036 51.3258173 -21.078125 50.4375 C-18.67891567 50.03999786 -16.54754969 49.92602902 -14.125 50 C-10.42272197 50 -7.85144175 49.3655767 -4.4375 48 C-5.4275 47.505 -5.4275 47.505 -6.4375 47 C-6.4375 46.01 -6.4375 45.02 -6.4375 44 C-7.4275 44.33 -8.4175 44.66 -9.4375 45 C-10.4275 44.505 -10.4275 44.505 -11.4375 44 C-11.4375 43.34 -11.4375 42.68 -11.4375 42 C-12.01757812 41.96261719 -12.59765625 41.92523438 -13.1953125 41.88671875 C-21.63809937 41.17618718 -28.28151888 37.87683162 -34.4375 32 C-35.4375 29.125 -35.4375 29.125 -35.4375 27 C-36.0975 27 -36.7575 27 -37.4375 27 C-37.7077086 19.0288464 -36.29202717 14.51893648 -31.4375 8 C-23.41672593 0.41278129 -10.66643095 -3.10296173 0 0 Z " fill="#FD7B62" transform="translate(91.4375,210)"/>
<path d="M0 0 C0.680625 -0.00515625 1.36125 -0.0103125 2.0625 -0.015625 C4 0.25 4 0.25 7 2.25 C7.72455635 3.89232772 8.37774395 5.56624835 9 7.25 C9.634231 8.52666327 10.2811618 9.79706007 10.9375 11.0625 C16 21.05477528 16 21.05477528 16 25.25 C16.66 25.58 17.32 25.91 18 26.25 C18.495 27.24 18.495 27.24 19 28.25 C20.32 26.27 21.64 24.29 23 22.25 C23.99 22.58 24.98 22.91 26 23.25 C26 23.91 26 24.57 26 25.25 C26.99 24.92 27.98 24.59 29 24.25 C30.66967972 24.9090841 32.33607955 25.57650839 34 26.25 C36.70886941 26.41798262 36.70886941 26.41798262 39 26.25 C38.505 24.765 38.505 24.765 38 23.25 C35.92361328 22.51824885 35.92361328 22.51824885 33.5 22.1875 C31.03125 21.77734375 31.03125 21.77734375 29 21.25 C28.505 20.26 28.505 20.26 28 19.25 C27.21625 19.146875 26.4325 19.04375 25.625 18.9375 C23 18.25 23 18.25 21.125 16 C19.79429938 12.74717626 19.85001888 11.53566033 21 8.25 C22.40418899 5.14600328 23.66223377 3.50776897 26.375 1.4375 C33.05011774 -0.7491765 40.09128665 -0.71957112 46.75 1.5 C49 3.25 49 3.25 50.1875 5.125 C49.88191993 8.58824079 47.50635321 10.04929962 45 12.25 C44.20335937 11.90775391 44.20335937 11.90775391 43.390625 11.55859375 C42.68421875 11.27113281 41.9778125 10.98367187 41.25 10.6875 C40.55390625 10.39746094 39.8578125 10.10742188 39.140625 9.80859375 C36.69987216 9.17168197 35.3596345 9.44751169 33 10.25 C35.4665377 11.63126111 37.61284929 12.40888685 40.375 13.125 C44.90074411 14.52954128 48.51035871 16.30698962 51.4375 20.125 C52.38775404 23.71484861 51.64038522 26.96922957 50 30.25 C49.34 30.25 48.68 30.25 48 30.25 C47.67 30.91 47.34 31.57 47 32.25 C40.4248559 35.81153639 34.28124904 36.29352884 27.0625 34.3125 C24 33.25 24 33.25 22 32.25 C21.01 32.745 21.01 32.745 20 33.25 C17.95944995 33.32065617 15.91665743 33.33421976 13.875 33.3125 C12.77929688 33.30347656 11.68359375 33.29445313 10.5546875 33.28515625 C9.71164062 33.27355469 8.86859375 33.26195312 8 33.25 C7.67 31.93 7.34 30.61 7 29.25 C2.05 29.25 -2.9 29.25 -8 29.25 C-8.33 30.57 -8.66 31.89 -9 33.25 C-12.96 33.25 -16.92 33.25 -21 33.25 C-18.25 26.375 -18.25 26.375 -16 25.25 C-15.31526605 22.92190457 -14.65146849 20.58762223 -14 18.25 C-13.03112419 16.23473831 -12.0358679 14.23166034 -11 12.25 C-10.67 11.26 -10.34 10.27 -10 9.25 C-9.34 9.25 -8.68 9.25 -8 9.25 C-8 7.93 -8 6.61 -8 5.25 C-7.34 5.25 -6.68 5.25 -6 5.25 C-6.33 4.26 -6.66 3.27 -7 2.25 C-4.00261059 0.25174039 -3.36652492 -0.02550398 0 0 Z M-1 14.25 C-1.12375 15.054375 -1.2475 15.85875 -1.375 16.6875 C-1.58125 17.533125 -1.7875 18.37875 -2 19.25 C-2.99 19.745 -2.99 19.745 -4 20.25 C-1.69 20.25 0.62 20.25 3 20.25 C2.67 18.6 2.34 16.95 2 15.25 C1.01 14.92 0.02 14.59 -1 14.25 Z M40 23.25 C41 25.25 41 25.25 41 25.25 Z " fill="#FC7A63" transform="translate(362,233.75)"/>
<path d="M0 0 C6.625 -0.125 6.625 -0.125 10 1 C10.33 8.92 10.66 16.84 11 25 C15.84666111 24.92098174 15.84666111 24.92098174 20.69287109 24.81982422 C22.46287275 24.8051883 24.23272455 24.90071486 26 25 C26.66 25.66 27.32 26.32 28 27 C28.33 26.34 28.66 25.68 29 25 C29.66 25 30.32 25 31 25 C31.103125 24.319375 31.20625 23.63875 31.3125 22.9375 C32.46773852 18.00148087 34.67369458 13.48644617 37 9 C37.33 8.34 37.66 7.68 38 7 C38.66 7 39.32 7 40 7 C39.505 5.515 39.505 5.515 39 4 C40.7089079 1.72145614 42.08811665 0.22797084 44.90625 -0.4765625 C47.14108367 -0.6350022 48.83983761 -0.61086559 51 0 C53.5 3 53.5 3 55 6 C54.67 6.66 54.34 7.32 54 8 C54.99 8.33 55.98 8.66 57 9 C57 10.32 57 11.64 57 13 C57.66 13 58.32 13 59 13 C59 14.32 59 15.64 59 17 C59.66 17 60.32 17 61 17 C61.2475 17.639375 61.495 18.27875 61.75 18.9375 C63.13913677 22.34088509 64.65788809 25.67315114 66.1953125 29.01171875 C67 31 67 31 67 33 C63.37 33 59.74 33 56 33 C56 32.34 56 31.68 56 31 C55.34 30.67 54.68 30.34 54 30 C53.67 29.67 53.34 29.34 53 29 C50.81707226 28.76518307 48.62796826 28.58636677 46.4375 28.4375 C45.23996094 28.35371094 44.04242188 28.26992188 42.80859375 28.18359375 C41.41833984 28.09271484 41.41833984 28.09271484 40 28 C39.690625 28.639375 39.38125 29.27875 39.0625 29.9375 C38 32 38 32 37 33 C34.1883662 33.08861992 31.40141745 33.11522355 28.58984375 33.09765625 C27.74780899 33.0962413 26.90577423 33.09482635 26.03822327 33.09336853 C23.33794665 33.08775263 20.63775172 33.07519748 17.9375 33.0625 C16.11132932 33.05748705 14.28515734 33.05292379 12.45898438 33.04882812 C7.97262458 33.03777804 3.48632616 33.02050279 -1 33 C-1.02477373 28.94320623 -1.04289493 24.88644194 -1.05493164 20.82958984 C-1.05995118 19.45035027 -1.06676819 18.07111598 -1.07543945 16.69189453 C-1.0876092 14.70607817 -1.09271633 12.72022251 -1.09765625 10.734375 C-1.10289307 9.54038086 -1.10812988 8.34638672 -1.11352539 7.11621094 C-1.01941946 4.53305383 -0.76626155 2.44991581 0 0 Z M46 12 C47 14 47 14 47 14 Z M46 15 C45.01 15.495 45.01 15.495 44 16 C44 17.32 44 18.64 44 20 C45.65 20 47.3 20 49 20 C49 19.01 49 18.02 49 17 C48.01 16.34 47.02 15.68 46 15 Z M27 29 C28 31 28 31 28 31 Z " fill="#FC7B63" transform="translate(201,234)"/>
<path d="M0 0 C1.28003906 0.00483398 1.28003906 0.00483398 2.5859375 0.00976562 C3.83117187 -0.0144043 3.83117187 -0.0144043 5.1015625 -0.0390625 C12.31335895 -0.04471438 17.58404012 1.5309899 23.7734375 5.38476562 C27.39001905 9.33777337 28.86834547 13.0051728 29.4609375 18.32226562 C28.81957965 24.09448628 25.74157117 27.5266792 21.375 31.09570312 C17.23245545 33.75031331 13.83660055 34.57230267 8.94140625 34.29882812 C7.91982422 34.24726563 6.89824219 34.19570313 5.84570312 34.14257812 C4.79060547 34.078125 3.73550781 34.01367188 2.6484375 33.94726562 C1.57400391 33.89054687 0.49957031 33.83382812 -0.60742188 33.77539062 C-3.25201716 33.63434554 -5.89560144 33.48297586 -8.5390625 33.32226562 C-8.58844399 28.94402646 -8.6247729 24.56593416 -8.64892578 20.1875 C-8.65899293 18.69756243 -8.67264768 17.20764465 -8.68994141 15.71777344 C-8.71415903 13.57807535 -8.72553814 11.4386381 -8.734375 9.29882812 C-8.75008545 7.36644287 -8.75008545 7.36644287 -8.76611328 5.39501953 C-8.32547312 -0.56831063 -4.93632599 0.04295853 0 0 Z M2.4609375 9.32226562 C2.4609375 14.93226563 2.4609375 20.54226562 2.4609375 26.32226562 C5.1009375 26.32226562 7.7409375 26.32226562 10.4609375 26.32226562 C10.4609375 25.66226562 10.4609375 25.00226563 10.4609375 24.32226562 C11.4509375 24.65226562 12.4409375 24.98226563 13.4609375 25.32226562 C15.1109375 23.01226562 16.7609375 20.70226562 18.4609375 18.32226562 C16.12564476 13.37294397 16.12564476 13.37294397 12.1484375 9.88476562 C8.77663766 9.08325861 8.77663766 9.08325861 2.4609375 9.32226562 Z " fill="#FC755D" transform="translate(314.5390625,233.677734375)"/>
<path d="M0 0 C3.485625 -0.0825 6.97125 -0.165 10.5625 -0.25 C11.64732666 -0.28641602 12.73215332 -0.32283203 13.84985352 -0.36035156 C20.15145709 -0.43223077 23.88862532 0.24022372 29 4 C31 6.5 31 6.5 32 9 C31.75 11.0625 31.75 11.0625 31 13 C30.44248072 15.10618396 30 16.81884536 30 19 C30.66 19.33 31.32 19.66 32 20 C32.29354834 23.05290269 32.43032367 25.95624724 32 29 C29.40798407 31.80217939 27.60113499 32.79962167 24 34 C22.07906824 34.01583723 20.15727672 33.96657609 18.23828125 33.87890625 C17.23063721 33.83580322 16.22299316 33.7927002 15.18481445 33.74829102 C13.2680188 33.65632446 13.2680188 33.65632446 11.3125 33.5625 C7.249375 33.376875 3.18625 33.19125 -1 33 C-0.67 22.11 -0.34 11.22 0 0 Z M10 9 C9.34444881 11.52733235 9.34444881 11.52733235 9 14 C10.43655854 14.08131463 11.8744483 14.13933559 13.3125 14.1875 C14.11300781 14.22230469 14.91351563 14.25710937 15.73828125 14.29296875 C18.47851584 13.93801608 19.29171079 13.10633718 21 11 C19.68 10.67 18.36 10.34 17 10 C17 9.34 17 8.68 17 8 C13.37114676 7.84850702 13.37114676 7.84850702 10 9 Z M10 20 C9.957279 21.66611905 9.95936168 23.33382885 10 25 C11.87643761 26.87643761 14.49805701 26.17984987 16.9921875 26.23046875 C19.31674328 26.11831337 19.31674328 26.11831337 22 24 C20.50520579 21.83341465 20.50520579 21.83341465 18 20 C15.24128373 19.64199865 12.79902476 19.81339835 10 20 Z " fill="#FC7A61" transform="translate(271,234)"/>
<path d="M0 0 C5.97873264 0.11935764 5.97873264 0.11935764 7.08984375 1.23046875 C7.23339492 5.23267528 7.13200778 9.22488558 7.08984375 13.23046875 C11.70984375 13.23046875 16.32984375 13.23046875 21.08984375 13.23046875 C21.05890625 10.29140625 21.05890625 10.29140625 21.02734375 7.29296875 C21.00607187 5.27213999 21.01740322 3.25011074 21.08984375 1.23046875 C22.98473327 -0.66442077 25.66123521 0.05027763 28.1796875 0 C30.08984375 0.23046875 30.08984375 0.23046875 32.08984375 2.23046875 C32.31689453 5.30322266 32.31689453 5.30322266 32.28515625 9.20703125 C32.28232635 9.89227875 32.27949646 10.57752625 32.27658081 11.28353882 C32.26537656 13.47435902 32.24027234 15.66477191 32.21484375 17.85546875 C32.20481423 19.33983785 32.19568833 20.82421335 32.1875 22.30859375 C32.16543669 25.94935136 32.13090551 29.58987031 32.08984375 33.23046875 C28.45984375 33.23046875 24.82984375 33.23046875 21.08984375 33.23046875 C20.75984375 29.60046875 20.42984375 25.97046875 20.08984375 22.23046875 C16.12984375 22.23046875 12.16984375 22.23046875 8.08984375 22.23046875 C7.75984375 25.86046875 7.42984375 29.49046875 7.08984375 33.23046875 C3.78984375 33.23046875 0.48984375 33.23046875 -2.91015625 33.23046875 C-4.0611877 26.79390086 -4.0937502 20.44497839 -4.09765625 13.91796875 C-4.10990234 12.82162109 -4.12214844 11.72527344 -4.13476562 10.59570312 C-4.13669922 9.55091797 -4.13863281 8.50613281 -4.140625 7.4296875 C-4.14473389 6.47924561 -4.14884277 5.52880371 -4.15307617 4.54956055 C-3.84201147 1.57990867 -3.05689546 0.36882788 0 0 Z " fill="#FD7A63" transform="translate(419.91015625,233.76953125)"/>
<path d="M0 0 C1.91015625 1.09765625 1.91015625 1.09765625 4.53515625 3.09765625 C3.54515625 5.40765625 2.55515625 7.71765625 1.53515625 10.09765625 C-2.00881637 10.09765625 -4.99764583 9.24656604 -8.40625 8.33984375 C-9.08558594 8.25992188 -9.76492187 8.18 -10.46484375 8.09765625 C-11.12484375 8.75765625 -11.78484375 9.41765625 -12.46484375 10.09765625 C-9.74118978 11.2992683 -7.35203469 12.11607406 -4.40234375 12.59765625 C-1.67804788 13.06136619 0.16329606 13.72927537 2.53515625 15.09765625 C2.53515625 15.75765625 2.53515625 16.41765625 2.53515625 17.09765625 C3.19515625 17.09765625 3.85515625 17.09765625 4.53515625 17.09765625 C6.03354126 19.4774442 6.56072293 20.75676724 6.34765625 23.59765625 C5.46865178 26.30228539 4.46347294 28.01507423 2.53515625 30.09765625 C1.87515625 30.09765625 1.21515625 30.09765625 0.53515625 30.09765625 C0.53515625 30.75765625 0.53515625 31.41765625 0.53515625 32.09765625 C-7.22016758 35.27932757 -14.63307009 34.66323728 -22.46484375 32.09765625 C-25.07858667 30.15842763 -25.41040754 29.26096489 -26.46484375 26.09765625 C-24.52734375 23.41015625 -24.52734375 23.41015625 -22.46484375 21.09765625 C-19.53753204 22.05073448 -16.69796412 22.98962486 -13.90234375 24.28515625 C-11.01782843 25.24666136 -9.35166291 24.92246173 -6.46484375 24.09765625 C-6.79484375 23.43765625 -7.12484375 22.77765625 -7.46484375 22.09765625 C-9.3832844 21.51811412 -9.3832844 21.51811412 -11.65234375 21.16015625 C-16.80255023 20.09572566 -20.96618957 18.99595155 -24.33984375 14.72265625 C-25.58663372 11.81347965 -25.93349018 10.22196579 -25.46484375 7.09765625 C-21.37370778 -2.44832768 -8.81857174 -3.22835194 0 0 Z " fill="#FC7A64" transform="translate(191.46484375,234.90234375)"/>
<path d="M0 0 C1.84497186 0.20499687 3.68934303 0.41949865 5.52734375 0.6796875 C9.26547672 1.16393221 13.01977717 1.42930883 16.77734375 1.71875 C19 2 19 2 20 3 C22 3.02083333 24.0005998 2.99072477 26 2.9375 C30.89855172 2.88947498 35.03909058 3.31423397 39.74609375 4.5625 C42.44335097 5.08605773 44.94260855 5.05910937 47.6875 5 C51.86492597 4.92979116 55.19904669 5.05079317 59 7 C60.375 9.125 60.375 9.125 61 11 C55.38559095 13.51170931 50.88990049 12.80560949 45 12 C43.52108892 11.85159716 42.0419268 11.70567034 40.5625 11.5625 C37.18359286 11.19367563 33.89529775 10.60218719 30.5625 9.9375 C25.96985276 9.05778166 21.66252134 8.85561921 16.99609375 9.02734375 C15 9 15 9 13 8 C9.62583985 7.72357336 6.25198439 7.55294991 2.87109375 7.37890625 C1.92363281 7.25386719 0.97617187 7.12882813 0 7 C-0.33 6.34 -0.66 5.68 -1 5 C-1.66 5 -2.32 5 -3 5 C-1.125 1.125 -1.125 1.125 0 0 Z " fill="#FC735E" transform="translate(62,197)"/>
<path d="M0 0 C4.70310404 0.47828177 9.34297349 1.18502036 14 2 C14.33 3.32 14.66 4.64 15 6 C9.59255982 6.77249145 4.46137814 7.09752461 -1 7 C-1 6.34 -1 5.68 -1 5 C-1.66 5 -2.32 5 -3 5 C-1.125 1.125 -1.125 1.125 0 0 Z " fill="#FB7C68" transform="translate(62,197)"/>
<path d="M0 0 C0.66 0.33 1.32 0.66 2 1 C1.34 3.31 0.68 5.62 0 8 C0.66 8.33 1.32 8.66 2 9 C1.01 10.32 0.02 11.64 -1 13 C-2.51403812 8.15507803 -1.36602172 4.7408989 0 0 Z " fill="#FC614D" transform="translate(119,273)"/>
<path d="M0 0 C2.475 0.495 2.475 0.495 5 1 C6.25 8.625 6.25 8.625 4 12 C2.82428549 8.32589215 2.92633254 4.83070817 3 1 C2.01 0.67 1.02 0.34 0 0 Z " fill="#FB6B5C" transform="translate(137,209)"/>
<path d="M0 0 C2.97 0.495 2.97 0.495 6 1 C6 2.32 6 3.64 6 5 C4.35 5 2.7 5 1 5 C0.67 3.35 0.34 1.7 0 0 Z " fill="#FB6150" transform="translate(43,292)"/>
<path d="M0 0 C2.05078125 0.03255208 4.1015625 0.06510417 6.15234375 0.09765625 C3.50495459 1.55828475 2.25786041 2.09765625 -0.84765625 2.09765625 C-1.17765625 3.08765625 -1.50765625 4.07765625 -1.84765625 5.09765625 C-2.41015625 3.16015625 -2.41015625 3.16015625 -2.84765625 1.09765625 C-1.84765625 0.09765625 -1.84765625 0.09765625 0 0 Z " fill="#FC3F32" transform="translate(443.84765625,233.90234375)"/>
<path d="M0 0 C4 1 4 1 4 1 Z " fill="#FFC2C2" transform="translate(39,289)"/>
<path d="" fill="#FF0000" transform="translate(0,0)"/>
<path d="" fill="#FF0000" transform="translate(0,0)"/>
<path d="M0 0 C3 1 3 1 3 1 Z " fill="#FF0000" transform="translate(113,212)"/>
<path d="M0 0 C3 1 3 1 3 1 Z " fill="#FF0000" transform="translate(80,197)"/>
<path d="M0 0 C2 1 2 1 2 1 Z " fill="#FF0000" transform="translate(104,302)"/>
<path d="M0 0 C2 1 2 1 2 1 Z " fill="#FF0000" transform="translate(53,287)"/>
<path d="" fill="#FF0000" transform="translate(0,0)"/>
<path d="M0 0 C2 1 2 1 2 1 Z " fill="#FF0000" transform="translate(96,210)"/>
<path d="M0 0 C2 1 2 1 2 1 Z " fill="#FF0000" transform="translate(102,208)"/>
<path d="M0 0 C2 1 2 1 2 1 Z " fill="#FF0000" transform="translate(61,195)"/>
<path d="" fill="#FF0000" transform="translate(0,0)"/>
<path d="" fill="#FF0000" transform="translate(0,0)"/>
<path d="" fill="#FF0000" transform="translate(0,0)"/>
<path d="" fill="#FF0000" transform="translate(0,0)"/>
<path d="" fill="#FF0000" transform="translate(0,0)"/>
<path d="" fill="#FF0000" transform="translate(0,0)"/>
<path d="" fill="#FF0000" transform="translate(0,0)"/>
<path d="" fill="#FF0000" transform="translate(0,0)"/>
<path d="" fill="#FF0000" transform="translate(0,0)"/>
<path d="" fill="#FF0000" transform="translate(0,0)"/>
</svg>
