<?xml version="1.0" encoding="UTF-8"?>
<svg version="1.1" viewBox="0 0 1024 1024" width="1024" height="1024" xmlns="http://www.w3.org/2000/svg">
  <!-- Large S icon for browser tabs -->
  <path d="M 512 200
    C 650 200 750 250 750 340
    C 750 400 710 440 640 460
    C 720 480 770 530 770 610
    C 770 710 660 790 512 790
    C 364 790 254 710 254 610
    L 360 610
    C 360 650 420 690 512 690
    C 604 690 664 650 664 610
    C 664 570 604 530 512 530
    L 440 530
    L 440 430
    L 512 430
    C 604 430 664 390 664 350
    C 664 310 604 270 512 270
    C 420 270 360 310 360 350
    L 254 350
    C 254 250 364 200 512 200 Z"
    fill="#FB7D65"
    stroke="#FB7D65"
    stroke-width="12"/>
</svg>
