<?xml version="1.0" encoding="UTF-8"?>
<svg version="1.1" viewBox="0 0 2000 2000" width="1024" height="1024" xmlns="http://www.w3.org/2000/svg">
<!-- Rounded square tan background for app icon -->
<rect width="2000" height="2000" rx="360" ry="360" fill="#FFF4E6"/>

<!-- User's actual S logo - scaled to almost fill the tan background -->
<g transform="translate(-200, -100) scale(9)">
<path transform="translate(976,669)" d="m0 0h46l32 3 48 6 39 6 40 4 45 4 10 2 5 5 4 9-1 7-9 21-8 15-7 15-9 17-7 8-10 5-6 2-26-1-25-3-39-5-39-6-53-7h-20l-14 2-12 5-6 4-5 10-1 7 4 11 4 5 25 12 22 9 19 8 17 6 24 11 20 9 24 12 22 14 11 9 8 7 9 11 7 10 10 19 3 9 2 15v14l-2 20-6 21-9 22-6 10-9 12-15 16-10 9-21 14-19 9-23 10-24 8-23 5-104 14-65 8-38 5-60 7-61 10-39 5-5 1h-8l-6-4-5-6-2-6v-8l7-31 12-50 4-19 5-10 7-7 16-8 17-3 66-7 72-9 53-6 68-9 45-4 15-4 9-6 6-7 3-10-3-8-5-6-14-8-24-10-34-12-23-8-34-14-24-12-15-10-10-8-10-9-8-10-9-16-4-11-2-13v-21l3-19 6-18 8-18 10-16 8-10 12-13 16-12 17-10 16-8 26-10 15-4 24-3z" fill="#FB7D65"/>
<path transform="translate(823,508)" d="m0 0h9l41 5 173 17 60 6 45 4 97 10 47 4 12 2 13 5 10 7 9 9 7 14 2 8v12l-8 38-6 29-7 33-12 58-14 70-9 47-11 54-9 42-9 48-11 55-7 36-10 50-8 36-5 28-2 12-8 14-6 7-11 8-14 7-20 3-42-5-69-10-48-6-147-21-89-11 2-5 4-6 2-13 15 1 76 9 48 5 42 4 94 10 70 6 26 3 4 1h7l11-4 9-6 4-9 11-52 7-36 7-34 9-46 21-105 7-37 7-33 9-46 17-84 5-24 8-41 13-65 1-7v-10l-4-9-7-6-12-2-35-3-85-8-53-6-108-10-53-6-72-7-30-4-11-2-14 7-6 7-3 6-7 39-7 32-9 48-10 46-9 46-13 63-6 29-6 33-8 36-12 61-5 5-19 5-11 2h-8v-10l14-71 29-145 11-56 8-37 7-37 12-61 7-37 5-15 7-11 8-8 14-9 10-4z" fill="#FB7D65"/>
<path transform="translate(1364,655)" d="m0 0 9 1 10 3 10 9 6 9 2 6v9l-5 26-7 34-8 41-8 39-7 36-7 35-8 41-7 35-9 49-7 33-6 31-6 29-10 52-14 70-9 44-5 26-4 13-8 14-12 12-10 6-14 4-7 1h-13l-32-6-46-10-36-7-114-24-52-11-72-14-50-9-47-9-38-7-5-2-1-6 3-12 5-1 56 9 47 8 46 8 55 9 35 6 39 6 55 9 29 5 46 8 66 10 5 1h9l14-7 7-8 3-11 13-63 9-45 13-66 9-43 7-36 11-55 15-78 11-55 7-37 8-38 14-75 9-50z" fill="#FB7D65"/>
<path transform="translate(846,584)" d="m0 0 14 1 55 7 99 10 137 13 97 10 9 2 5 7v8l-7 8-3 2-12-1-37-4-50-5-87-11-58-6-48-6-78-8-32-3-7-3-4-7 1-6z" fill="#FB7D65"/>
</g>
</svg>
