<?xml version="1.0" encoding="UTF-8"?>
<svg version="1.1" xmlns="http://www.w3.org/2000/svg" width="500" height="500">
<path d="M0 0 C4.61973968 0.97893228 8.88090256 1.32264831 13.58813477 1.07958984 C15.50610352 1.07177734 15.50610352 1.07177734 18.50610352 2.07177734 C19.70235352 2.07177734 20.89860352 2.07177734 22.13110352 2.07177734 C23.24485352 2.07177734 24.35860352 2.07177734 25.50610352 2.07177734 C25.83610352 2.40177734 26.16610352 2.73177734 26.50610352 3.07177734 C27.41360352 3.00990234 28.32110352 2.94802734 29.25610352 2.88427734 C32.50610352 3.07177734 32.50610352 3.07177734 35.38110352 4.57177734 C37.83007675 7.45292233 38.10578666 9.28331482 37.88110352 13.03271484 C37.32733459 16.04383338 36.07009611 18.46512302 34.50610352 21.07177734 C33.84610352 21.07177734 33.18610352 21.07177734 32.50610352 21.07177734 C32.23797852 21.79365234 31.96985352 22.51552734 31.69360352 23.25927734 C30.5070899 26.06944117 29.23124713 28.55594291 27.50610352 31.07177734 C26.84610352 31.07177734 26.18610352 31.07177734 25.50610352 31.07177734 C25.50610352 31.73177734 25.50610352 32.39177734 25.50610352 33.07177734 C15.94167468 33.65046547 7.37457803 32.53376232 -1.94384766 30.49462891 C-6.92813361 29.43194599 -11.48949756 28.8856922 -16.59033203 29.09912109 C-18.49389648 29.07177734 -18.49389648 29.07177734 -21.49389648 28.07177734 C-26.02994164 27.92545331 -30.0684347 27.9654119 -34.49389648 29.07177734 C-35.29342786 32.35873968 -35.59048584 33.78200927 -34.49389648 37.07177734 C-32.51846848 37.76870141 -32.51846848 37.76870141 -30.18139648 38.07177734 C-26.41074901 38.67009496 -24.4892069 39.7427352 -21.49389648 42.07177734 C-19.85164243 42.83500439 -18.18266806 43.54289323 -16.49389648 44.19677734 C-15.64827148 44.52935547 -14.80264648 44.86193359 -13.93139648 45.20458984 C-11.56362891 46.09373648 -11.56362891 46.09373648 -9.33374023 46.59912109 C-6.74801221 47.26339517 -4.76580154 48.68646938 -2.49389648 50.07177734 C-1.68952148 50.38115234 -0.88514648 50.69052734 -0.05639648 51.00927734 C3.11235889 52.32315152 5.68970105 54.1175389 8.50610352 56.07177734 C9.57860352 56.73177734 10.65110352 57.39177734 11.75610352 58.07177734 C14.50600469 60.07170547 15.37647149 60.96528928 16.50610352 64.07177734 C16.87735352 64.97927734 17.24860352 65.88677734 17.63110352 66.82177734 C17.91985352 67.56427734 18.20860352 68.30677734 18.50610352 69.07177734 C19.16610352 69.07177734 19.82610352 69.07177734 20.50610352 69.07177734 C22.92783053 74.97473694 23.55761268 80.84714924 21.56860352 86.94677734 C21.21797852 87.64802734 20.86735352 88.34927734 20.50610352 89.07177734 C20.17610352 90.06177734 19.84610352 91.05177734 19.50610352 92.07177734 C16.92786859 97.92238737 14.51175563 102.98821904 9.50610352 107.07177734 C8.51610352 107.40177734 7.52610352 107.73177734 6.50610352 108.07177734 C6.50610352 108.73177734 6.50610352 109.39177734 6.50610352 110.07177734 C5.51610352 110.07177734 4.52610352 110.07177734 3.50610352 110.07177734 C3.01110352 111.55677734 3.01110352 111.55677734 2.50610352 113.07177734 C0.36157227 114.13427734 0.36157227 114.13427734 -2.30639648 115.07177734 C-5.07333463 116.05267122 -7.24561707 116.88441407 -9.59545898 118.65771484 C-12.36617193 120.72149691 -15.11296921 120.70294891 -18.49389648 121.07177734 C-19.97889648 121.56677734 -19.97889648 121.56677734 -21.49389648 122.07177734 C-23.59607595 122.22664459 -25.70090065 122.34662918 -27.80639648 122.44677734 C-32.92388516 122.7685988 -37.69130084 123.46110916 -42.68139648 124.63427734 C-47.84158501 125.83485812 -52.41807421 126.31803684 -57.70092773 125.98193359 C-60.22430569 126.06310519 -62.22320063 126.42734409 -64.66186523 127.01318359 C-69.75316383 128.21656228 -74.78585335 128.58508199 -79.99389648 128.94677734 C-87.84719696 129.55953065 -95.21315616 130.74777138 -102.82568359 132.7421875 C-108.22577175 134.12248206 -112.95022105 134.42375674 -118.49389648 134.07177734 C-122.04581262 126.46248009 -119.68752225 118.2035848 -117.95092773 110.28271484 C-117.42255203 107.92351683 -117.42255203 107.92351683 -117.18139648 104.88427734 C-116.22738764 100.98151389 -114.5487776 97.72938692 -111.49389648 95.07177734 C-105.86855591 92.96769752 -100.1972461 92.50974168 -94.24389648 92.00927734 C-92.46757862 91.8548704 -90.69151955 91.69744858 -88.91577148 91.53662109 C-87.74933105 91.43788696 -87.74933105 91.43788696 -86.55932617 91.3371582 C-84.30040531 91.11436349 -84.30040531 91.11436349 -81.49389648 90.07177734 C-78.86889648 89.44677734 -78.86889648 89.44677734 -76.49389648 89.07177734 C-76.16389648 89.40177734 -75.83389648 89.73177734 -75.49389648 90.07177734 C-74.44202148 89.74177734 -73.39014648 89.41177734 -72.30639648 89.07177734 C-69.05354921 88.2185715 -66.78680728 87.98277975 -63.49389648 88.07177734 C-62.89577148 87.90677734 -62.29764648 87.74177734 -61.68139648 87.57177734 C-59.49389648 87.07177734 -59.49389648 87.07177734 -56.11108398 87.12255859 C-50.49926213 87.15429608 -44.99315806 86.44807222 -39.43139648 85.75927734 C-38.38145508 85.64132813 -37.33151367 85.52337891 -36.24975586 85.40185547 C-30.50304745 84.69662694 -25.60662404 83.85537346 -20.49389648 81.07177734 C-19.45099893 79.00287316 -19.45099893 79.00287316 -19.49389648 77.07177734 C-22.72887095 75.40785507 -26.02259044 73.93550193 -29.36889648 72.50927734 C-30.37694336 72.07486328 -31.38499023 71.64044922 -32.42358398 71.19287109 C-35.47083892 70.08019658 -38.3003255 69.58171155 -41.49389648 69.07177734 C-43.73217773 68.23974609 -43.73217773 68.23974609 -45.80639648 67.25927734 C-48.12280679 66.17491749 -50.42389615 65.10046796 -52.79077148 64.13037109 C-62.01584806 60.32900333 -70.46503052 54.40486072 -74.86889648 45.19677734 C-76.96028625 34.73982849 -74.32918835 25.94142098 -68.49389648 17.07177734 C-64.58421875 11.72855111 -60.13592608 8.42649764 -54.49389648 5.07177734 C-53.83389648 4.41177734 -53.17389648 3.75177734 -52.49389648 3.07177734 C-36.76069236 -4.12054454 -16.64042966 -3.5738109 0 0 Z " fill="#FD7D64" transform="translate(274.493896484375,167.92822265625)"/>
<path d="M0 0 C2.06145107 0.068991 4.12501401 0.08467727 6.1875 0.0625 C7.27417969 0.05347656 8.36085938 0.04445312 9.48046875 0.03515625 C10.31191406 0.02355469 11.14335937 0.01195312 12 0 C12 0.66 12 1.32 12 2 C12.66 1.67 13.32 1.34 14 1 C16.33583036 1.06297582 18.67000838 1.1983408 21 1.375 C22.258125 1.46523437 23.51625 1.55546875 24.8125 1.6484375 C28 2 28 2 30 3 C32.35214169 3.27151517 34.71049051 3.48986404 37.0703125 3.68359375 C37.78420135 3.74402359 38.49809021 3.80445343 39.23361206 3.86671448 C41.5304355 4.0608643 43.82764841 4.24971019 46.125 4.4375 C49.10711101 4.68229051 52.08889599 4.9304796 55.0703125 5.18359375 C55.81054657 5.24622406 56.55078064 5.30885437 57.31344604 5.37338257 C63.697915 5.9330942 70.03639476 6.7360331 76.38378906 7.61743164 C81.26346708 8.13366547 86.00951715 8.06139602 90.9140625 7.875 C97.20033897 8.12963398 103.22526448 10.82452678 108.15234375 14.6875 C111.79616281 19.24805155 110.5126351 25.4575099 110 31 C109.41650245 33.55326637 108.66644357 35.94425814 107.80078125 38.4140625 C105.97169655 44.32066772 105 50.81564596 105 57 C104.01 57.99 104.01 57.99 103 59 C103.04125 59.928125 103.0825 60.85625 103.125 61.8125 C103.27093464 65.67976798 102.20399564 68.84170556 101 72.5 C99.4453412 77.25095033 98.7991554 80.97888498 99 86 C98.38242027 88.34680297 97.7166207 90.68152126 97 93 C96.65977214 94.99883869 96.32670903 96.99890722 96 99 C95.13414904 102.80662403 94.15087538 106.53849884 92.9375 110.25 C91.85666374 114.57334502 91.53043614 118.73981962 91.21875 123.17578125 C90.98778574 126.15769478 90.5708422 129.06424011 90 132 C89.34 132 88.68 132 88 132 C88.0825 133.010625 88.165 134.02125 88.25 135.0625 C88.29040557 140.71928024 86.48274566 145.95167161 84.875 151.31640625 C83.99423024 155.02428964 83.92098577 158.20731673 84 162 C83.35561283 163.67540664 82.68753301 165.34183216 82 167 C81.74523737 169.00625567 81.49181097 171.01289557 81.2734375 173.0234375 C80.88283635 175.84692582 80.01773839 178.34257198 79 181 C78.608125 182.155 78.21625 183.31 77.8125 184.5 C75.19830841 189.54809411 71.68387543 192.60420525 66.6640625 195.21484375 C63.35332193 196.19058987 61.13781578 195.85555161 57.75 195.25 C56.59371094 195.04890625 55.43742187 194.8478125 54.24609375 194.640625 C51.74686092 194.14739493 49.28497852 193.60710364 46.8125 193 C37.34807708 190.78232157 27.35928659 190.23310084 17.6875 189.5 C10.10597604 188.90062848 2.55572566 187.93821509 -4.8046875 185.99609375 C-9.29406201 184.84432739 -13.76728093 184.40794367 -18.375 184 C-25.02820931 183.36107506 -31.475114 182.49751482 -38 181 C-36.5467033 174.46016484 -36.5467033 174.46016484 -34.4453125 172.69140625 C-30.71416137 171.63643221 -27.3361629 172.54412349 -23.625 173.3125 C-22.13803644 173.60034104 -20.65105754 173.88810288 -19.1640625 174.17578125 C-18.50873535 174.30895752 -17.8534082 174.44213379 -17.17822266 174.5793457 C-12.2464648 175.53175758 -7.40931551 176.17751046 -2.39453125 176.5 C-1.16412109 176.5825 0.06628906 176.665 1.33398438 176.75 C3.91466454 176.91742375 6.49539436 177.08408362 9.07617188 177.25 C10.30271484 177.3325 11.52925781 177.415 12.79296875 177.5 C13.9121167 177.5721875 15.03126465 177.644375 16.18432617 177.71875 C19 178 19 178 22 179 C24.02034678 179.04434232 26.04204845 179.03927974 28.0625 179 C33.77829638 178.88914819 33.77829638 178.88914819 36 180 C37.53694707 180.20568808 39.08014419 180.36608061 40.625 180.5 C43.78592526 180.78570773 46.92082699 181.11368957 50.0625 181.5625 C54.40675138 182.0451946 58.63637779 182.0909088 63 182 C68.3375896 170.86068258 71.30534193 159.42259527 71 147 C71.66 147 72.32 147 73 147 C72.80744629 146.41677979 72.61489258 145.83355957 72.41650391 145.23266602 C71.8392813 142.13846863 73.03831713 140.00886685 74.19433594 137.16748047 C75.47811669 133.71372123 76.04146448 130.18958183 76.625 126.5625 C76.81328369 125.44717896 76.81328369 125.44717896 77.00537109 124.30932617 C77.84869569 119.21874265 78.49484618 114.13573053 79 109 C79.42431195 105.53478575 80.05176647 102.87293685 81.375 99.625 C82.98279528 95.52234997 83.86110446 91.31495817 84.6875 87 C84.88448486 86.00347412 84.88448486 86.00347412 85.08544922 84.98681641 C85.71582282 81.54387658 86.04884729 78.32724893 85.96484375 74.82421875 C85.99849186 71.16405212 86.43748974 69.11247794 87.875 65.8125 C89.93819261 60.58187084 90.82580246 55.5698386 91.5625 50.01171875 C91.9325247 47.46449512 92.43590328 45.09904862 93.125 42.625 C94.13442947 39.06459598 94.13442947 39.06459598 94 35.5625 C94 31.16493515 94.92241676 27.24298399 96 23 C95.34 23 94.68 23 94 23 C94 22.34 94 21.68 94 21 C93.1181604 20.96241577 93.1181604 20.96241577 92.21850586 20.92407227 C85.47810671 20.6342121 78.73890859 20.32254605 72 20 C71.1862793 19.96261719 70.37255859 19.92523438 69.53417969 19.88671875 C67.45979228 19.78858741 65.38609663 19.67612173 63.3125 19.5625 C62.15363281 19.50191406 60.99476563 19.44132812 59.80078125 19.37890625 C57 19 57 19 54 17 C54 17.66 54 18.32 54 19 C53.34 19 52.68 19 52 19 C52 18.34 52 17.68 52 17 C51.07445312 17.04640625 50.14890625 17.0928125 49.1953125 17.140625 C38.72904092 17.4815112 28.83030107 16.26820971 18.52783203 14.42285156 C11.89595743 13.2761474 5.62504237 12.87565034 -1.10351562 12.98779297 C-4.56729129 13.00239081 -7.71447446 12.64801629 -11.125 12.0625 C-12.70667969 11.80146484 -12.70667969 11.80146484 -14.3203125 11.53515625 C-17 11 -17 11 -20 10 C-22.6569191 10.87914688 -22.6569191 10.87914688 -25 12 C-24.79761719 12.86753906 -24.59523437 13.73507813 -24.38671875 14.62890625 C-23.95387891 18.40204545 -24.52277156 20.39644346 -25.8125 23.9375 C-27.90128116 30.21104618 -28.86485975 36.15352902 -29.60546875 42.6875 C-30.15898252 47.33482354 -31.17476164 51.73297393 -32.375 56.25 C-33.85657043 62.09678283 -34.92955568 67.96752106 -35.94042969 73.90869141 C-36.58241924 77.67122702 -37.26669149 81.40566313 -38.125 85.125 C-39.0473628 88.91645447 -39.0473628 88.91645447 -39.4375 92.5 C-39.89854084 95.36869854 -40.51254044 97.55953048 -41.5 100.25 C-43.32923751 105.41648057 -43.70494799 110.5567992 -44 116 C-44.66 116 -45.32 116 -46 116 C-45.67 116.99 -45.34 117.98 -45 119 C-45.8125 122.125 -45.8125 122.125 -48 125 C-51.33033445 125.83526073 -54.57525611 125.98714918 -58 126 C-59.33491899 121.45597113 -58.55384727 117.63879393 -57.5625 113.125 C-56.69582925 109.12090546 -55.99737217 105.48825147 -56.01953125 101.37109375 C-55.99879007 97.79116646 -55.31313644 95.29810488 -54.125 91.9375 C-52.20240151 86.0546194 -51.20320756 80.36404252 -50.43359375 74.234375 C-49.96200555 70.71658196 -49.25238456 67.32009294 -48.4296875 63.87109375 C-48.06514855 62.2836923 -47.80242901 60.67345191 -47.5625 59.0625 C-47.05205814 56.28342763 -46.31059281 53.80547653 -45.4375 51.125 C-44.43710572 47.922781 -43.84617496 45.28821073 -44 41.9375 C-44 37.77107417 -43.12846608 35.10130178 -41.71484375 31.2578125 C-41.02067958 29.06531583 -40.7684032 27.22326007 -40.625 24.9375 C-40.2305378 20.31078711 -38.979003 16.04600249 -37.625 11.625 C-37.41568848 10.92238037 -37.20637695 10.21976074 -36.99072266 9.49584961 C-35.27540913 4.07669065 -33.83261592 2.00980877 -28.9375 -0.6875 C-20.80857416 -3.93566911 -8.1214191 -2.7071397 0 0 Z " fill="#FC8068" transform="translate(228,128)"/>
<path d="M0 0 C3.1875 -0.375 3.1875 -0.375 7 0 C10.7420379 3.04040579 10.7420379 3.04040579 12 6 C12.261266 13.76078768 9.55513802 21.8883478 7.81640625 29.38476562 C6.57827542 34.86843976 5.65911145 40.19788288 5.27124023 45.81005859 C4.98659183 48.10825495 4.38525327 50.02824661 3.5625 52.1875 C1.61372399 57.50147946 1.08482633 62.96095443 0.4296875 68.546875 C0.07317492 71.41193971 -0.41088154 74.17714071 -1 77 C-1.12375 78.051875 -1.2475 79.10375 -1.375 80.1875 C-1.86646368 83.18542843 -2.49616381 85.64760942 -3.4375 88.5 C-5.7776852 95.94500097 -7 104.19364533 -7 112 C-7.99 112.495 -7.99 112.495 -9 113 C-8.938125 113.969375 -8.87625 114.93875 -8.8125 115.9375 C-8.80022786 119.0055345 -9.36047886 121.32241463 -10.4375 124.1875 C-12.14726653 128.84541537 -12.47602411 133.26891607 -12.69140625 138.203125 C-13.01379088 141.12499079 -13.8868979 143.29803442 -15 146 C-14.979375 147.11375 -14.95875 148.2275 -14.9375 149.375 C-14.99782779 152.87401174 -15.64658917 154.86815688 -17.14453125 157.9765625 C-18.20144941 160.47648764 -18.83365798 162.99488811 -19.5 165.625 C-21.45274343 172.9628864 -21.45274343 172.9628864 -24 176 C-26.4375 177.1875 -26.4375 177.1875 -29 178 C-29.639375 178.37125 -30.27875 178.7425 -30.9375 179.125 C-35.87935745 181.22154558 -40.18613107 179.73299282 -45 178 C-49.37724814 176.75977969 -53.40444855 175.91389934 -57.9375 175.5625 C-61.24433218 175.27690995 -64.06910535 174.75629731 -67.1875 173.625 C-75.68276838 170.55351849 -84.7777294 169.29421638 -93.6875 168 C-98.85581164 167.23735889 -103.82968619 166.11041977 -108.8828125 164.796875 C-112.34813319 163.91100355 -115.82228456 163.09466244 -119.3125 162.3125 C-120.97732422 161.93544922 -120.97732422 161.93544922 -122.67578125 161.55078125 C-126.01395517 160.89900345 -126.01395517 160.89900345 -129.5 161.03515625 C-133.26629769 160.99732513 -136.10784244 160.26417093 -139.6875 159.125 C-145.3024645 157.42131419 -150.76153596 156.26301688 -156.57421875 155.4921875 C-159 155 -159 155 -162 153 C-161.67 151.35 -161.34 149.7 -161 148 C-157.4789137 148.14008671 -153.95820288 148.28810982 -150.4375 148.4375 C-149.44685547 148.47681641 -148.45621094 148.51613281 -147.43554688 148.55664062 C-142.22401363 148.78172346 -137.14646762 149.14105239 -132 150 C-132 150.66 -132 151.32 -132 152 C-130.7625 151.938125 -129.525 151.87625 -128.25 151.8125 C-124.34392064 151.8002935 -121.01314062 152.40663967 -117.25 153.4375 C-111.78553057 154.92780985 -106.55722155 155.49516319 -100.91015625 155.7890625 C-96.9333987 156.0773107 -93.42503945 156.86619128 -89.625 158.0625 C-86.10004909 159.14749919 -86.10004909 159.14749919 -82.75390625 158.9375 C-78.69888423 159.00501337 -75.17777703 159.83936148 -71.3125 160.9375 C-65.36539387 162.53766158 -59.73177241 163.44596346 -53.5625 163.78125 C-51.19128531 163.98367077 -49.19795416 164.40918952 -46.9375 165.125 C-43.97951334 166.31200169 -43.97951334 166.31200169 -41 165 C-41 165.66 -41 166.32 -41 167 C-37.2692549 166.49584526 -35.38329386 165.94250247 -33 163 C-32.28541294 160.9382843 -32.28541294 160.9382843 -31.9375 158.6875 C-31.46138669 156.08928165 -30.90500313 153.72543588 -30.0390625 151.22265625 C-28.81583999 147.42882705 -28.10373374 143.67332775 -27.4375 139.75 C-27.30601562 138.99855713 -27.17453125 138.24711426 -27.0390625 137.47290039 C-26.35475679 133.4634046 -25.80930644 129.49635803 -25.5 125.4375 C-25.19471904 121.78023415 -24.24584531 118.86624608 -22.828125 115.4609375 C-21.67661962 112.03901113 -21.02799187 108.54307043 -20.375 105 C-20.25205566 104.33532715 -20.12911133 103.6706543 -20.00244141 102.98583984 C-19.41297852 99.67915629 -18.92991968 96.4013478 -18.5390625 93.0625 C-18.00554904 88.62982061 -17.0072161 84.34522261 -16 80 C-15.10714878 75.96209766 -14.23908988 71.91914158 -13.375 67.875 C-13.14554688 66.82957031 -12.91609375 65.78414063 -12.6796875 64.70703125 C-11.5378955 59.3310939 -10.94445991 54.512354 -11 49 C-10.1953125 46.21875 -10.1953125 46.21875 -9.125 43.5 C-6.9883208 37.52632645 -6.14423089 31.71291327 -5.4921875 25.4453125 C-5.0122694 22.08588579 -4.07875638 19.20493596 -3 16 C-3.03171548 14.03364045 -3.06439955 12.06711958 -3.12890625 10.1015625 C-2.90310909 6.42038462 -1.44326986 3.36762968 0 0 Z M-3 78 C-2 81 -2 81 -2 81 Z M-17 151 C-16 153 -16 153 -16 153 Z " fill="#FC8068" transform="translate(340,163)"/>
<path d="M0 0 C1.48274002 0.29232086 2.96177989 0.603774 4.4375 0.9296875 C12.97712622 2.55518819 21.45379129 3.40632565 30.125 3.9921875 C31.31802734 4.07549316 32.51105469 4.15879883 33.74023438 4.24462891 C38.53454986 4.56068556 43.27710325 4.84985265 48.08203125 4.73046875 C51.4375 4.8046875 51.4375 4.8046875 54.4375 6.8046875 C57.54993313 6.94437594 60.61031627 6.80040857 63.72265625 6.6796875 C67.58260253 6.80957002 71.00697105 7.49577691 74.76782227 8.30566406 C80.17866148 9.31707287 85.7079935 9.5283418 91.19726562 9.83984375 C92.08994141 9.90816406 92.98261719 9.97648438 93.90234375 10.046875 C95.10298462 10.12204346 95.10298462 10.12204346 96.32788086 10.19873047 C99.1274587 11.00286798 99.93009898 12.38522265 101.4375 14.8046875 C100.75 16.7421875 100.75 16.7421875 99.4375 18.8046875 C95.96835097 19.79346974 92.94713863 19.85404909 89.375 19.53515625 C88.41948242 19.45185059 87.46396484 19.36854492 86.47949219 19.28271484 C84.97370605 19.13890381 84.97370605 19.13890381 83.4375 18.9921875 C82.4052832 18.8988916 81.37306641 18.8055957 80.30957031 18.70947266 C73.99687682 18.1170995 67.77562133 17.36971083 61.546875 16.171875 C58.69701579 15.83533384 56.07427522 15.81538287 53.2109375 15.8671875 C47.6974351 15.91081286 42.6870855 15.07375249 37.3125 13.9296875 C27.81306694 12.03543558 18.403023 11.06546798 8.73779297 10.48876953 C-1.03275408 9.8677401 -1.03275408 9.8677401 -5.5625 7.8046875 C-6.9375 5.6796875 -6.9375 5.6796875 -7.5625 3.8046875 C-5.12461701 0.43990108 -4.24393797 -0.23267204 0 0 Z " fill="#FC856E" transform="translate(215.5625,144.1953125)"/>
<path d="M0 0 C1.75570312 0.01353516 1.75570312 0.01353516 3.546875 0.02734375 C4.43890625 0.03894531 5.3309375 0.05054688 6.25 0.0625 C6.25 0.3925 6.25 0.7225 6.25 1.0625 C5.28320312 1.18367188 4.31640625 1.30484375 3.3203125 1.4296875 C-5.47580281 2.55207156 -5.47580281 2.55207156 -14.1875 4.1875 C-18.47947277 5.10568323 -22.36696934 5.13555051 -26.75 5.0625 C-28.75720923 5.34924418 -30.76178687 5.66485737 -32.75 6.0625 C-32.75 5.4025 -32.75 4.7425 -32.75 4.0625 C-30.47981829 2.92740914 -28.8437539 2.78964522 -26.3203125 2.5625 C-25.44246094 2.48 -24.56460938 2.3975 -23.66015625 2.3125 C-22.28150391 2.18875 -22.28150391 2.18875 -20.875 2.0625 C-19.064848 1.898639 -17.25493866 1.73206965 -15.4453125 1.5625 C-14.2389917 1.45421875 -14.2389917 1.45421875 -13.00830078 1.34375 C-10.76125272 1.11046221 -10.76125272 1.11046221 -8.65869141 0.53735352 C-5.77184588 -0.18084993 -2.96570077 -0.02965701 0 0 Z " fill="#FB9E89" transform="translate(240.75,288.9375)"/>
<path d="M0 0 C0 0.33 0 0.66 0 1 C-4.10495148 1.74652928 -8.21246319 2.47618252 -12.32299805 3.19116211 C-13.71734702 3.43603046 -15.11093423 3.68528258 -16.50366211 3.93920898 C-24.2085938 5.34085964 -31.21579016 6.4396047 -39 5 C-38.67 4.34 -38.34 3.68 -38 3 C-37.2575 3.020625 -36.515 3.04125 -35.75 3.0625 C-33.12865809 3.11479546 -33.12865809 3.11479546 -31.1875 2.5 C-29 2 -29 2 -25.5625 2.0625 C-21.77825497 2.1261602 -18.23190634 1.61838077 -14.5 1 C-9.56321512 0.18390751 -4.99370363 -0.19583151 0 0 Z " fill="#FBA68E" transform="translate(244,253)"/>
<path d="M0 0 C0 0.33 0 0.66 0 1 C-1.84464844 1.02126953 -1.84464844 1.02126953 -3.7265625 1.04296875 C-5.35941158 1.0898897 -6.99222292 1.13813697 -8.625 1.1875 C-9.43324219 1.19330078 -10.24148437 1.19910156 -11.07421875 1.20507812 C-17.09637262 1.42540083 -19.78179268 2.67763941 -24 7 C-25.8126505 9.16220617 -25.8126505 9.16220617 -27 11 C-26.4 5.6 -26.4 5.6 -24.875 3.3125 C-17.10442845 -2.12690008 -9.041458 -1.90346484 0 0 Z " fill="#FCA694" transform="translate(219,127)"/>
<path d="M0 0 C2.45840605 -0.02691685 4.91651882 -0.04679802 7.375 -0.0625 C8.07367188 -0.07087891 8.77234375 -0.07925781 9.4921875 -0.08789062 C14.7734375 -0.11328125 14.7734375 -0.11328125 17 1 C18.53668865 1.22467831 20.07968054 1.40796805 21.625 1.5625 C22.44226563 1.64628906 23.25953125 1.73007812 24.1015625 1.81640625 C24.72804688 1.87699219 25.35453125 1.93757813 26 2 C26 2.33 26 2.66 26 3 C22.97910522 3.02716089 19.95845871 3.04691657 16.9375 3.0625 C16.08994141 3.07087891 15.24238281 3.07925781 14.36914062 3.08789062 C9.4638278 3.10683006 4.83555245 2.83326345 0 2 C0 1.34 0 0.68 0 0 Z " fill="#FA8E7D" transform="translate(247,307)"/>
<path d="M0 0 C7.47093223 -0.29883729 14.63044989 0.84074493 22 2 C22 2.99 22 3.98 22 5 C14.59211729 3.92373883 7.28499714 2.72864339 0 1 C0 0.67 0 0.34 0 0 Z " fill="#FC8A81" transform="translate(270,319)"/>
<path d="M0 0 C0.66 0 1.32 0 2 0 C2.20086489 5.1220546 2.34539399 9.30921203 0 14 C-0.33 14.99 -0.66 15.98 -1 17 C-1.91849081 13.24378387 -2.00915728 10.09157278 -1.625 6.25 C-1.53476562 5.28578125 -1.44453125 4.3215625 -1.3515625 3.328125 C-1 1 -1 1 0 0 Z " fill="#F89B86" transform="translate(295,243)"/>
<path d="M0 0 C0.33 0 0.66 0 1 0 C1.29854168 7.91135458 -0.01669262 15.35265262 -2 23 C-4.36910837 15.8926749 -2.43017855 6.96651183 0 0 Z " fill="#FA9181" transform="translate(340,221)"/>
<path d="M0 0 C2.91786964 0.28218081 5.833918 0.57534127 8.75 0.875 C9.575 0.95363281 10.4 1.03226562 11.25 1.11328125 C12.04921875 1.19707031 12.8484375 1.28085937 13.671875 1.3671875 C14.4050293 1.44050293 15.13818359 1.51381836 15.89355469 1.58935547 C18.19952905 2.03889753 19.95391841 2.8637373 22 4 C16.71541127 6.64229437 8.29246587 3.76415367 2.71484375 2.59765625 C1 2 1 2 0 0 Z " fill="#F89387" transform="translate(198,320)"/>
<path d="M0 0 C0.99 0 1.98 0 3 0 C3 4.95 3 9.9 3 15 C0.48760618 11.23140928 -0.12663199 8.73760751 -0.0625 4.3125 C-0.05347656 3.50425781 -0.04445312 2.69601563 -0.03515625 1.86328125 C-0.02355469 1.24839844 -0.01195312 0.63351563 0 0 Z " fill="#FC5947" transform="translate(199,201)"/>
<path d="M0 0 C0.33 0 0.66 0 1 0 C0.67 5.28 0.34 10.56 0 16 C1.98 16 3.96 16 6 16 C4.25 17.0625 4.25 17.0625 2 18 C0.68 17.67 -0.64 17.34 -2 17 C-1.34 11.39 -0.68 5.78 0 0 Z " fill="#FAAE9B" transform="translate(171,236)"/>
<path d="M0 0 C14.81839623 4.31603774 14.81839623 4.31603774 18 8 C13.51006131 7.41347648 9.77456816 6.2356462 5.625 4.4375 C4.56539063 3.98246094 3.50578125 3.52742187 2.4140625 3.05859375 C1.61742187 2.70925781 0.82078125 2.35992187 0 2 C0 1.34 0 0.68 0 0 Z " fill="#FC9B89" transform="translate(252,210)"/>
<path d="M0 0 C2.01860909 6.05582728 -0.57801759 12.91170638 -2 19 C-2.33 19 -2.66 19 -3 19 C-3.19946435 12.71687298 -2.84752843 7.04155282 -1 1 C-0.67 0.67 -0.34 0.34 0 0 Z " fill="#FCA595" transform="translate(315,260)"/>
<path d="M0 0 C5.43087408 -0.11083416 10.66645094 -0.11115605 16 1 C16.33 1.66 16.66 2.32 17 3 C14.91731407 3.08126087 12.83371342 3.13930839 10.75 3.1875 C9.00976562 3.23970703 9.00976562 3.23970703 7.234375 3.29296875 C3.77731593 2.97982934 2.48434437 2.34290892 0 0 Z " fill="#FC977E" transform="translate(233,314)"/>
<path d="M0 0 C0 0.66 0 1.32 0 2 C-1.3303125 2.309375 -1.3303125 2.309375 -2.6875 2.625 C-6.92278682 4.38304358 -8.30493333 6.35373333 -11 10 C-11.66 9.01 -12.32 8.02 -13 7 C-9.25366434 2.81291897 -5.84085116 0 0 0 Z " fill="#F79281" transform="translate(172,261)"/>
<path d="M0 0 C0.33 0 0.66 0 1 0 C2.22708301 6.01270677 1.75852042 10.48295916 -1 16 C-1.66 16 -2.32 16 -3 16 C-2.125 8.125 -2.125 8.125 -1 7 C-0.63239269 4.67182036 -0.29758419 2.3381615 0 0 Z " fill="#FD8B79" transform="translate(325,207)"/>
<path d="M0 0 C1.42242743 4.44508573 1.78796719 9.07932998 0 13.4375 C-0.33 13.953125 -0.66 14.46875 -1 15 C-1.33 15 -1.66 15 -2 15 C-2.21755666 9.5610835 -2.10428384 5.12919186 0 0 Z " fill="#FB9B8A" transform="translate(311,279)"/>
<path d="M0 0 C0.66 0 1.32 0 2 0 C1.71767279 2.10544013 1.4238102 4.20933589 1.125 6.3125 C0.96257812 7.48425781 0.80015625 8.65601563 0.6328125 9.86328125 C0 13 0 13 -2 16 C-1.85975781 13.52039864 -1.7130815 11.04147598 -1.5625 8.5625 C-1.52318359 7.85544922 -1.48386719 7.14839844 -1.44335938 6.41992188 C-1.11328125 1.11328125 -1.11328125 1.11328125 0 0 Z " fill="#FBA086" transform="translate(323,248)"/>
<path d="M0 0 C0.598125 0.226875 1.19625 0.45375 1.8125 0.6875 C1.049375 1.265 0.28625 1.8425 -0.5 2.4375 C-2.84950917 4.40453093 -4.48073505 6.17226744 -6.1875 8.6875 C-5.58623418 3.27610759 -5.58623418 3.27610759 -3.875 0.75 C-2.1875 -0.3125 -2.1875 -0.3125 0 0 Z " fill="#FB9282" transform="translate(198.1875,129.3125)"/>
<path d="M0 0 C0.33 0 0.66 0 1 0 C0.67 4.62 0.34 9.24 0 14 C-2 12 -2 12 -2.25 9.25 C-1.98998031 5.86974405 -1.20288037 3.15756096 0 0 Z " fill="#FA9788" transform="translate(176,213)"/>
<path d="M0 0 C0.66 0.66 1.32 1.32 2 2 C1.7578125 4.6015625 1.7578125 4.6015625 1.125 7.625 C0.81949219 9.12933594 0.81949219 9.12933594 0.5078125 10.6640625 C0.34023437 11.43492187 0.17265625 12.20578125 0 13 C-0.66 13 -1.32 13 -2 13 C-1.85966889 11.02043559 -1.7125877 9.04134859 -1.5625 7.0625 C-1.48128906 5.96035156 -1.40007812 4.85820312 -1.31640625 3.72265625 C-1 1 -1 1 0 0 Z " fill="#FB9882" transform="translate(181,186)"/>
<path d="M0 0 C2.5 1.625 2.5 1.625 5 4 C5.3125 7.25 5.3125 7.25 5 10 C4.01 10.495 4.01 10.495 3 11 C2.01 7.37 1.02 3.74 0 0 Z " fill="#FB8B7C" transform="translate(347,165)"/>
<path d="M0 0 C0 0.66 0 1.32 0 2 C0.99 2.33 1.98 2.66 3 3 C1.54207116 3.05399736 0.08357288 3.09279177 -1.375 3.125 C-2.18710938 3.14820313 -2.99921875 3.17140625 -3.8359375 3.1953125 C-6 3 -6 3 -8 1 C-5.07175348 0.02391783 -3.04386724 -0.08226668 0 0 Z " fill="#FC7262" transform="translate(240,128)"/>
<path d="M0 0 C3.34373475 0.55728913 6.03312999 1.35173889 9 3 C5.18510326 4.46726798 2.70988378 3.43336419 -1 2 C-0.67 1.34 -0.34 0.68 0 0 Z " fill="#FA6F62" transform="translate(276,335)"/>
<path d="M0 0 C1.60156595 4.00391487 0.4087561 7.07031192 -1 11 C-1.99 11.495 -1.99 11.495 -3 12 C-2.49202991 7.6822542 -1.80317221 3.96697886 0 0 Z " fill="#FBA58D" transform="translate(296,298)"/>
<path d="M0 0 C0 0.66 0 1.32 0 2 C-3.96 1.67 -7.92 1.34 -12 1 C-12 0.67 -12 0.34 -12 0 C-7.74433453 -1.16063604 -4.3164922 -0.76173392 0 0 Z " fill="#FB8575" transform="translate(262,150)"/>
<path d="M0 0 C6.57403846 -0.37211538 6.57403846 -0.37211538 8.73046875 1.51171875 C9.35888672 2.24841797 9.35888672 2.24841797 10 3 C8.5199159 2.88637738 7.04089926 2.75877092 5.5625 2.625 C4.73878906 2.55539063 3.91507812 2.48578125 3.06640625 2.4140625 C2.38449219 2.27742187 1.70257813 2.14078125 1 2 C0.67 1.34 0.34 0.68 0 0 Z " fill="#FCA291" transform="translate(320,137)"/>
<path d="M0 0 C0.66 0 1.32 0 2 0 C2.93065133 2.60582371 3.14917407 3.64198224 2.0625 6.25 C1.5365625 7.11625 1.5365625 7.11625 1 8 C0.34 7.67 -0.32 7.34 -1 7 C-0.67 4.69 -0.34 2.38 0 0 Z " fill="#F88D6F" transform="translate(324,300)"/>
<path d="M0 0 C5.75 -0.125 5.75 -0.125 8 1 C8 1.66 8 2.32 8 3 C5.36 2.67 2.72 2.34 0 2 C0 1.34 0 0.68 0 0 Z " fill="#FC9A82" transform="translate(280,327)"/>
<path d="M0 0 C2.64 0 5.28 0 8 0 C6 2 6 2 3.375 2.125 C2.59125 2.08375 1.8075 2.0425 1 2 C0.67 1.34 0.34 0.68 0 0 Z " fill="#FFD1B9" transform="translate(172,303)"/>
<path d="M0 0 C2.31 0 4.62 0 7 0 C7 0.33 7 0.66 7 1 C4.69 1 2.38 1 0 1 C0 0.67 0 0.34 0 0 Z " fill="#FFC8C8" transform="translate(291,201)"/>
<path d="M0 0 C1.98 0 3.96 0 6 0 C6 0.33 6 0.66 6 1 C4.02 1 2.04 1 0 1 C0 0.67 0 0.34 0 0 Z " fill="#FF1500" transform="translate(270,150)"/>
<path d="M0 0 C1.98 0 3.96 0 6 0 C6 0.33 6 0.66 6 1 C4.02 1 2.04 1 0 1 C0 0.67 0 0.34 0 0 Z " fill="#FF2A00" transform="translate(271,145)"/>
<path d="M0 0 C1.65 0 3.3 0 5 0 C5 0.33 5 0.66 5 1 C3.35 1 1.7 1 0 1 C0 0.67 0 0.34 0 0 Z " fill="#FF3300" transform="translate(215,294)"/>
<path d="M0 0 C1.65 0 3.3 0 5 0 C5 0.33 5 0.66 5 1 C3.35 1 1.7 1 0 1 C0 0.67 0 0.34 0 0 Z " fill="#FF4C33" transform="translate(308,135)"/>
<path d="M0 0 C1.65 0 3.3 0 5 0 C5 0.33 5 0.66 5 1 C3.35 1 1.7 1 0 1 C0 0.67 0 0.34 0 0 Z " fill="#FF4C00" transform="translate(229,127)"/>
<path d="M0 0 C4 1 4 1 4 1 Z " fill="#FF5F00" transform="translate(251,306)"/>
<path d="M0 0 C4 1 4 1 4 1 Z " fill="#FF3F00" transform="translate(269,160)"/>
<path d="M0 0 C3 1 3 1 3 1 Z " fill="#FF0000" transform="translate(246,331)"/>
<path d="M0 0 C3 1 3 1 3 1 Z " fill="#FF7F00" transform="translate(210,314)"/>
<path d="M0 0 C3 1 3 1 3 1 Z " fill="#FFAA00" transform="translate(158,302)"/>
<path d="" fill="#FF7F7F" transform="translate(0,0)"/>
<path d="" fill="#FF5500" transform="translate(0,0)"/>
<path d="" fill="#FF5500" transform="translate(0,0)"/>
<path d="" fill="#FF7F55" transform="translate(0,0)"/>
<path d="" fill="#FF0000" transform="translate(0,0)"/>
<path d="M0 0 C2 1 2 1 2 1 Z " fill="#FF0000" transform="translate(210,295)"/>
<path d="" fill="#FF0000" transform="translate(0,0)"/>
<path d="" fill="#FF0000" transform="translate(0,0)"/>
<path d="" fill="#FF0000" transform="translate(0,0)"/>
<path d="" fill="#FF0000" transform="translate(0,0)"/>
<path d="" fill="#FF0000" transform="translate(0,0)"/>
<path d="" fill="#FF0000" transform="translate(0,0)"/>
<path d="" fill="#FFFF7F" transform="translate(0,0)"/>
<path d="" fill="#FF0000" transform="translate(0,0)"/>
<path d="" fill="#FF7F7F" transform="translate(0,0)"/>
<path d="" fill="#FF0000" transform="translate(0,0)"/>
<path d="" fill="#FF0000" transform="translate(0,0)"/>
<path d="" fill="#FF7F00" transform="translate(0,0)"/>
<path d="M0 0 C2 1 2 1 2 1 Z " fill="#FF0000" transform="translate(256,165)"/>
<path d="M0 0 C2 1 2 1 2 1 Z " fill="#FF0000" transform="translate(242,165)"/>
<path d="" fill="#FF0000" transform="translate(0,0)"/>
<path d="" fill="#FF4040" transform="translate(0,0)"/>
<path d="" fill="#FFBFBF" transform="translate(0,0)"/>
<path d="" fill="#FF0000" transform="translate(0,0)"/>
<path d="" fill="#FF0000" transform="translate(0,0)"/>
<path d="" fill="#FF0000" transform="translate(0,0)"/>
<path d="" fill="#FF0000" transform="translate(0,0)"/>
<path d="" fill="#FF0000" transform="translate(0,0)"/>
<path d="" fill="#FF0000" transform="translate(0,0)"/>
<path d="" fill="#FF0000" transform="translate(0,0)"/>
<path d="" fill="#FF0000" transform="translate(0,0)"/>
<path d="" fill="#FF0000" transform="translate(0,0)"/>
<path d="" fill="#FF0000" transform="translate(0,0)"/>
<path d="" fill="#FF0000" transform="translate(0,0)"/>
<path d="" fill="#FF0000" transform="translate(0,0)"/>
<path d="" fill="#FF0000" transform="translate(0,0)"/>
<path d="" fill="#FF0000" transform="translate(0,0)"/>
<path d="" fill="#FF0000" transform="translate(0,0)"/>
<path d="" fill="#FF0000" transform="translate(0,0)"/>
<path d="" fill="#FF0000" transform="translate(0,0)"/>
<path d="" fill="#FF0000" transform="translate(0,0)"/>
<path d="" fill="#FF0000" transform="translate(0,0)"/>
<path d="" fill="#FFFF00" transform="translate(0,0)"/>
<path d="" fill="#FF0000" transform="translate(0,0)"/>
<path d="" fill="#FF0000" transform="translate(0,0)"/>
<path d="" fill="#FF0000" transform="translate(0,0)"/>
<path d="" fill="#FFFF00" transform="translate(0,0)"/>
<path d="" fill="#FF0000" transform="translate(0,0)"/>
</svg>
