<?xml version="1.0" encoding="UTF-8"?>
<svg version="1.1" viewBox="0 0 1024 1024" width="1024" height="1024" xmlns="http://www.w3.org/2000/svg">
  <!-- Rounded square tan background -->
  <rect width="1024" height="1024" rx="180" ry="180" fill="#FFF4E6"/>

  <!-- Large S that fills most of the icon -->
  <path d="M 512 150
    C 650 150 750 200 750 290
    C 750 350 710 390 640 410
    C 720 430 770 480 770 560
    C 770 660 660 740 512 740
    C 364 740 254 660 254 560
    L 360 560
    C 360 600 420 640 512 640
    C 604 640 664 600 664 560
    C 664 520 604 480 512 480
    L 440 480
    L 440 380
    L 512 380
    C 604 380 664 340 664 300
    C 664 260 604 220 512 220
    C 420 220 360 260 360 300
    L 254 300
    C 254 200 364 150 512 150 Z"
    fill="#FB7D65"
    stroke="#FB7D65"
    stroke-width="8"/>
</svg>
