<?xml version="1.0" encoding="UTF-8"?>
<svg version="1.1" xmlns="http://www.w3.org/2000/svg" width="500" height="500">
<path d="M0 0 C165 0 330 0 500 0 C500 165 500 330 500 500 C335 500 170 500 0 500 C0 335 0 170 0 0 Z " fill="#FDF8F3" transform="translate(0,0)"/>
<path d="M0 0 C-0.47851098 5.02436531 -1.29443755 8.46287221 -5 12 C-11.72722495 12.94813238 -18.32960693 11.98820638 -25 11 C-28.66834551 10.91492241 -32.33138457 10.94029378 -36 11 C-35.80911295 12.95193683 -35.80911295 12.95193683 -35 15 C-33.21890553 16.20342662 -33.21890553 16.20342662 -30.95703125 16.96484375 C-30.13009766 17.29033203 -29.30316406 17.61582031 -28.45117188 17.95117188 C-27.58041016 18.27666016 -26.70964844 18.60214844 -25.8125 18.9375 C-19.02033384 21.50320092 -13.06424422 23.82148515 -8.625 29.875 C-7.30101502 34.37654892 -7.735032 38.11157788 -9.0625 42.5625 C-13.33698573 50.14626501 -19.83399112 53.55180419 -28 56 C-33.39173487 56.99388302 -38.80104845 57.60451747 -44.25 58.1875 C-45.67592178 58.35230421 -47.10170475 58.5183141 -48.52734375 58.68554688 C-57.33823749 59.69988414 -66.14741048 60.44518413 -75 61 C-75.92538217 56.93028553 -75.87668501 54.36083388 -74.75 50.3125 C-74.49734375 49.35988281 -74.2446875 48.40726562 -73.984375 47.42578125 C-73 45 -73 45 -70 43 C-67.77297654 42.57456507 -65.52751071 42.24301107 -63.27734375 41.96484375 C-62.28717003 41.83946983 -62.28717003 41.83946983 -61.2769928 41.71156311 C-59.1646794 41.4460947 -57.05118412 41.19179773 -54.9375 40.9375 C-53.54222987 40.76307099 -52.14704635 40.58794772 -50.75195312 40.41210938 C-43.51113408 39.50704715 -36.26633521 38.67266749 -29 38 C-28.67 36.68 -28.34 35.36 -28 34 C-28.54938232 33.78384033 -29.09876465 33.56768066 -29.66479492 33.3449707 C-32.17786853 32.34742488 -34.6825253 31.33020307 -37.1875 30.3125 C-38.05181641 29.97283203 -38.91613281 29.63316406 -39.80664062 29.28320312 C-45.49251565 26.95221222 -50.13372887 24.73254226 -53 19 C-53.56051959 14.4055771 -53.46379562 10.92759124 -51.375 6.75 C-40.82139936 -5.46995863 -14.64266611 -7.32133306 0 0 Z " fill="#FD7F65" transform="translate(139,218)"/>
<path d="M0 0 C0.85174805 0.01434082 1.70349609 0.02868164 2.58105469 0.04345703 C9.36975644 0.21361573 16.03001669 0.90025445 22.75390625 1.8046875 C29.31964089 2.66610254 35.93107043 3.11305495 42.53417969 3.58935547 C48.1853335 4.03632281 53.36926758 4.5327769 58.3125 7.5625 C60.86056628 11.9092013 57.86535601 19.27966107 56.921875 24.125 C56.78140747 24.85221756 56.64093994 25.57943512 56.49621582 26.32868958 C56.04137395 28.6778991 55.58347473 31.02649695 55.125 33.375 C54.96882202 34.17779388 54.81264404 34.98058777 54.6517334 35.80770874 C52.39072681 47.41728603 50.00998889 58.99181633 47.4296875 70.53515625 C46.7307786 73.68024631 46.08823186 76.82700403 45.5078125 79.99609375 C45.37729492 80.70080811 45.24677734 81.40552246 45.11230469 82.1315918 C44.78077277 83.95568756 44.4638529 85.78242347 44.1484375 87.609375 C43.32507507 90.55351945 42.95765248 91.7559402 40.375 93.375 C30.28727012 94.68711032 17.07136377 93.60712126 7.375 90.375 C5.62552528 90.10495279 3.87054938 89.86978228 2.11328125 89.65625 C1.07623047 89.52863281 0.03917969 89.40101563 -1.02929688 89.26953125 C-2.11275391 89.13933594 -3.19621094 89.00914062 -4.3125 88.875 C-5.37662109 88.74480469 -6.44074219 88.61460937 -7.53710938 88.48046875 C-9.6123223 88.22667495 -11.68767642 87.97403242 -13.76318359 87.72265625 C-17.38497769 87.28267717 -21.0050939 86.83022398 -24.625 86.375 C-24.625 86.045 -24.625 85.715 -24.625 85.375 C-9.82374701 85.01516403 4.60350737 85.41597372 19.30004883 87.30786133 C25.38747062 88.08856169 31.23432941 88.62848485 37.375 88.375 C39.21652204 86.53347796 39.16010155 83.60037382 39.609375 81.12109375 C39.72760117 80.4771315 39.84582733 79.83316925 39.96763611 79.16969299 C40.22300804 77.77820755 40.47676333 76.38642466 40.72909546 74.99438477 C41.39462741 71.32654601 42.07333748 67.6611684 42.75390625 63.99609375 C42.89049149 63.26023041 43.02707672 62.52436707 43.1678009 61.76620483 C44.37813614 55.2837207 45.69550951 48.82626369 47.0625 42.375 C48.48184266 35.6540446 49.89379823 28.93396183 51.1875 22.1875 C51.42082031 20.97707031 51.65414062 19.76664063 51.89453125 18.51953125 C52.3211517 15.7274218 52.41167718 13.18840798 52.375 10.375 C51.15095459 10.26430176 49.92690918 10.15360352 48.66577148 10.03955078 C44.05268542 9.62150746 39.43999028 9.19927379 34.82739258 8.77587891 C32.84442128 8.59442635 30.86135052 8.41405705 28.87817383 8.23486328 C17.33695378 7.19122681 5.84444262 6.04446731 -5.625 4.375 C-5.74504395 5.01074951 -5.86508789 5.64649902 -5.98876953 6.30151367 C-9.34612783 24.0342401 -12.92321028 41.71146274 -16.625 59.375 C-19.1 59.87 -19.1 59.87 -21.625 60.375 C-22.02554324 52.98315664 -20.50933506 46.31081635 -18.875 39.125 C-18.32014794 36.63053411 -17.76677264 34.1357393 -17.21484375 31.640625 C-16.80661377 29.80081055 -16.80661377 29.80081055 -16.39013672 27.92382812 C-15.69519804 24.70058987 -15.05097497 21.47468578 -14.44140625 18.234375 C-14.26899414 17.32075195 -14.09658203 16.40712891 -13.91894531 15.46582031 C-13.60649501 13.78441937 -13.30197919 12.10151728 -13.00683594 10.41699219 C-11.30343671 1.35177561 -9.0825765 -0.28887689 0 0 Z " fill="#FD846C" transform="translate(92.625,195.625)"/>
<path d="M0 0 C2.31 0 4.62 0 7 0 C7 6.93 7 13.86 7 21 C11.95 21 16.9 21 22 21 C22.33 21.99 22.66 22.98 23 24 C23.32798584 23.30849854 23.65597168 22.61699707 23.99389648 21.90454102 C25.47290191 18.78947924 26.95515565 15.6759742 28.4375 12.5625 C28.95376953 11.47388672 29.47003906 10.38527344 30.00195312 9.26367188 C30.49501953 8.22919922 30.98808594 7.19472656 31.49609375 6.12890625 C31.95169678 5.17056885 32.4072998 4.21223145 32.87670898 3.22485352 C34 1 34 1 35 0 C37.67058851 -0.14115161 40.32432238 -0.04247107 43 0 C45.00645249 3.95509495 47.00406136 7.91459021 49 11.875 C49.57234375 13.00292969 50.1446875 14.13085938 50.734375 15.29296875 C51.27578125 16.36933594 51.8171875 17.44570312 52.375 18.5546875 C52.87773437 19.54968262 53.38046875 20.54467773 53.8984375 21.56982422 C55 24 55 24 55 26 C52.36 26 49.72 26 47 26 C46.67 24.35 46.34 22.7 46 21 C43.70759993 21.05985379 41.41593794 21.14859027 39.125 21.25 C37.84882813 21.29640625 36.57265625 21.3428125 35.2578125 21.390625 C34.18273437 21.59171875 33.10765625 21.7928125 32 22 C31.34 23.32 30.68 24.64 30 26 C20.1 26 10.2 26 0 26 C0 17.42 0 8.84 0 0 Z " fill="#FD8169" transform="translate(209,236)"/>
<path d="M0 0 C2.990625 -0.0825 5.98125 -0.165 9.0625 -0.25 C9.99070557 -0.28641602 10.91891113 -0.32283203 11.87524414 -0.36035156 C17.7956113 -0.43879216 21.15561527 0.56225303 26 4 C28.45825789 6.93404974 28.95857906 8.62030804 29.375 12.4375 C28.95972693 16.38259412 28.17955121 18.69309472 26 22 C21.83497152 25.09707246 18.01730937 26.13649477 12.890625 26.09765625 C12.21032227 26.09515869 11.53001953 26.09266113 10.82910156 26.09008789 C9.97799805 26.08098389 9.12689453 26.07187988 8.25 26.0625 C5.5275 26.041875 2.805 26.02125 0 26 C0 17.42 0 8.84 0 0 Z " fill="#FD846D" transform="translate(298,236)"/>
<path d="M0 0 C3.875 0.875 3.875 0.875 5 2 C4.78360412 7.98348901 3.53269485 13.93570818 2.36328125 19.79296875 C2.2033519 20.60992218 2.04342255 21.42687561 1.87864685 22.26858521 C1.36065067 24.90904107 0.83713148 27.54835502 0.3125 30.1875 C-0.04990336 32.01650063 -0.41220716 33.845521 -0.77441406 35.67456055 C-1.32270524 38.44327068 -1.87128872 41.21191841 -2.42153931 43.98023987 C-3.41607383 48.99588207 -4.38621372 54.01485179 -5.31770325 59.04258728 C-5.71066551 61.16189453 -6.109748 63.27995076 -6.51098633 65.39770508 C-6.99279624 67.95000832 -7.46324631 70.50449019 -7.9206543 73.0612793 C-8.13761963 74.19218994 -8.35458496 75.32310059 -8.578125 76.48828125 C-8.75762695 77.46321533 -8.93712891 78.43814941 -9.12207031 79.44262695 C-10.22220677 82.64727917 -11.22302121 84.04254749 -14 86 C-19.30913184 86.5803537 -24.20979347 85.51076376 -29.36328125 84.35546875 C-30.54956367 84.09978874 -30.54956367 84.09978874 -31.7598114 83.83894348 C-34.27890141 83.29523173 -36.79580133 82.74216634 -39.3125 82.1875 C-42.59910666 81.46724985 -45.88673947 80.75201772 -49.17578125 80.04296875 C-49.98226105 79.86909637 -50.78874084 79.695224 -51.61965942 79.51608276 C-60.03394045 77.73182716 -68.50412042 76.33257421 -77 75 C-77.33 74.01 -77.66 73.02 -78 72 C-69.25485184 72.54388974 -60.79168425 73.81245526 -52.1875 75.4375 C-34.21344997 78.85252815 -34.21344997 78.85252815 -16 80 C-12.05895232 62.41687679 -8.56952886 44.76062449 -5.1875 27.0625 C-4.68091267 24.42111362 -4.17347317 21.77989119 -3.66601562 19.13867188 C-2.44107662 12.75967435 -1.21924875 6.38008744 0 0 Z " fill="#FD836B" transform="translate(153,213)"/>
<path d="M0 0 C3.196875 -0.061875 6.39375 -0.12375 9.6875 -0.1875 C11.18543091 -0.22846802 11.18543091 -0.22846802 12.71362305 -0.27026367 C21.31254816 -0.35083798 21.31254816 -0.35083798 25 3 C25.4375 6.5625 25.4375 6.5625 25 10 C24.34 10.66 23.68 11.32 23 12 C23.66 12.556875 24.32 13.11375 25 13.6875 C27 16 27 16 27.5625 18.5 C26.76165663 22.05930386 24.9929454 23.05110532 22 25 C19.17588235 25.94137255 17.47081968 26.11725382 14.55078125 26.09765625 C13.78677002 26.09515869 13.02275879 26.09266113 12.2355957 26.09008789 C11.27097412 26.08098389 10.30635254 26.07187988 9.3125 26.0625 C4.7028125 26.0315625 4.7028125 26.0315625 0 26 C0 17.42 0 8.84 0 0 Z " fill="#FD826A" transform="translate(267,236)"/>
<path d="M0 0 C0.495 1.98 0.495 1.98 1 4 C1.66 4 2.32 4 3 4 C2.27962016 11.80209784 0.86028429 19.39807983 -0.65234375 27.08203125 C-0.91531877 28.42719085 -1.17813847 29.77238082 -1.44081116 31.11759949 C-1.98885458 33.91931631 -2.53975036 36.72045405 -3.0925293 39.52124023 C-3.7995328 43.10540772 -4.49777139 46.69122109 -5.19373226 50.27754688 C-5.73272158 53.04845408 -6.27708678 55.81828472 -6.82299995 58.58783531 C-7.20860841 60.55029798 -7.58908046 62.51376766 -7.96946716 64.47724915 C-8.20633743 65.66916367 -8.4432077 66.86107819 -8.68725586 68.08911133 C-8.89297714 69.13674149 -9.09869843 70.18437164 -9.31065369 71.26374817 C-9.94136293 73.76724937 -10.73867924 75.75950401 -12 78 C-22.28758144 77.49190335 -32.27236471 76.34556658 -42.4375 74.625 C-43.79818688 74.39971368 -45.15894607 74.17486374 -46.51977539 73.95043945 C-55.70357326 72.42700581 -64.870037 70.82007366 -74 69 C-72 67 -72 67 -68.8125 66.75 C-59.27078485 66.99288002 -49.76031766 68.81525243 -40.3984375 70.55859375 C-32.33720875 72.04217494 -24.19233026 72.63431429 -16 72 C-13.26301522 69.26301522 -13.00874133 66.2877567 -12.265625 62.6171875 C-12.10692932 61.8623407 -11.94823364 61.1074939 -11.784729 60.32977295 C-11.26527378 57.84641412 -10.75732154 55.36086365 -10.25 52.875 C-9.89548386 51.16448825 -9.54066362 49.4540395 -9.18554688 47.74365234 C-5.9075253 31.86992217 -2.89531311 15.94757138 0 0 Z " fill="#FDEEE8" transform="translate(149,216)"/>
<path d="M0 0 C2.31 0 4.62 0 7 0 C7 3.3 7 6.6 7 10 C11.29 10 15.58 10 20 10 C20 6.7 20 3.4 20 0 C22.64 0 25.28 0 28 0 C28 8.58 28 17.16 28 26 C25.36 26 22.72 26 20 26 C20 22.37 20 18.74 20 15 C15.71 15 11.42 15 7 15 C7 18.63 7 22.26 7 26 C4.69 26 2.38 26 0 26 C0 17.42 0 8.84 0 0 Z " fill="#FD8068" transform="translate(391,236)"/>
<path d="M0 0 C2.0078125 0.5234375 2.0078125 0.5234375 3.47265625 2.44140625 C5.58457013 6.68135549 7.67166282 10.92802981 9.6953125 15.2109375 C10.11103516 16.07783203 10.52675781 16.94472656 10.95507812 17.83789062 C11.34759766 18.66611328 11.74011719 19.49433594 12.14453125 20.34765625 C12.50248779 21.10135498 12.86044434 21.85505371 13.22924805 22.6315918 C14.0078125 24.5234375 14.0078125 24.5234375 14.0078125 26.5234375 C11.6978125 26.5234375 9.3878125 26.5234375 7.0078125 26.5234375 C6.82476562 25.87890625 6.64171875 25.234375 6.453125 24.5703125 C5.09969355 22.14898806 5.09969355 22.14898806 1.75 21.9140625 C0.47382813 21.86765625 -0.80234375 21.82125 -2.1171875 21.7734375 C-3.39851563 21.71671875 -4.67984375 21.66 -6 21.6015625 C-6.98742187 21.57578125 -7.97484375 21.55 -8.9921875 21.5234375 C-9.3221875 23.1734375 -9.6521875 24.8234375 -9.9921875 26.5234375 C-12.6321875 26.5234375 -15.2721875 26.5234375 -17.9921875 26.5234375 C-16.33394977 20.98691699 -13.91994824 15.90783235 -11.4296875 10.7109375 C-11.01783203 9.84017578 -10.60597656 8.96941406 -10.18164062 8.07226562 C-6.5563114 0.45966759 -6.5563114 0.45966759 0 0 Z " fill="#FD8068" transform="translate(345.9921875,235.4765625)"/>
<path d="M0 0 C1 3 1 3 0 6 C-4.62 5.34 -9.24 4.68 -14 4 C-13.67 4.99 -13.34 5.98 -13 7 C-10.31171739 8.14483787 -10.31171739 8.14483787 -7.125 9 C-0.20157178 11.00195515 -0.20157178 11.00195515 2 14 C2.4375 16.9375 2.4375 16.9375 2 20 C0.1329009 22.30275556 -1.35647741 23.67823871 -4 25 C-6.10053716 25.14901491 -8.20687825 25.22138453 -10.3125 25.25 C-11.44300781 25.27578125 -12.57351563 25.3015625 -13.73828125 25.328125 C-17.27776337 24.97205734 -19.13259621 24.04430289 -22 22 C-21.34 20.35 -20.68 18.7 -20 17 C-19.175 17.33 -18.35 17.66 -17.5 18 C-13.4126017 19.16782809 -10.23076656 19.1458885 -6 19 C-6 18.01 -6 17.02 -6 16 C-6.81984375 15.82984375 -7.6396875 15.6596875 -8.484375 15.484375 C-9.56203125 15.24203125 -10.6396875 14.9996875 -11.75 14.75 C-12.81734375 14.51796875 -13.8846875 14.2859375 -14.984375 14.046875 C-18.32454955 12.88733254 -19.86748474 11.80022028 -22 9 C-22 5.12539635 -21.91765172 2.91765172 -19.125 0.125 C-13.01474046 -3.10984329 -6.20145536 -2.87384517 0 0 Z " fill="#FD846D" transform="translate(384,237)"/>
<path d="M0 0 C-0.66 1.32 -1.32 2.64 -2 4 C-6.29 3.67 -10.58 3.34 -15 3 C-15 4.32 -15 5.64 -15 7 C-14.33613281 7.10957031 -13.67226562 7.21914062 -12.98828125 7.33203125 C-2.84697509 9.15302491 -2.84697509 9.15302491 1 13 C1.40680103 16.66120928 1.5001525 18.3618744 -0.8125 21.3125 C-5.78232332 25.1463637 -12.00847104 24.47363865 -18 24 C-20.37453128 23.24784645 -21.91312161 22.39125226 -24 21 C-23.34 19.35 -22.68 17.7 -22 16 C-21.29488281 16.32742187 -20.58976563 16.65484375 -19.86328125 16.9921875 C-16.76132833 18.08400722 -14.45993947 18.20385396 -11.1875 18.125 C-10.21167969 18.10695313 -9.23585937 18.08890625 -8.23046875 18.0703125 C-7.49441406 18.04710937 -6.75835937 18.02390625 -6 18 C-6 17.01 -6 16.02 -6 15 C-6.99580078 14.83564453 -6.99580078 14.83564453 -8.01171875 14.66796875 C-14.06120313 13.58171097 -18.54230503 12.45769497 -23 8 C-23.47597963 4.35082284 -23.50103477 2.66208166 -21.25 -0.3125 C-14.66786858 -5.24909856 -6.81204242 -3.40602121 0 0 Z " fill="#FD836C" transform="translate(203,238)"/>
<path d="M0 0 C2.31 0 4.62 0 7 0 C7 6.93 7 13.86 7 21 C11.62 21 16.24 21 21 21 C21 22.32 21 23.64 21 25 C14.07 25 7.14 25 0 25 C0 16.75 0 8.5 0 0 Z " fill="#FD7D63" transform="translate(209,236)"/>
<path d="M0 0 C7.04477612 -0.47761194 7.04477612 -0.47761194 11 1.5 C13.10448312 4.13060389 13.3578457 4.84625894 13.5 8.0625 C13 12 13 12 11.79296875 13.734375 C9.36677304 15.44698374 7.7506357 15.30197282 4.8125 15.1875 C3.224375 15.125625 1.63625 15.06375 0 15 C0 10.05 0 5.1 0 0 Z " fill="#FDF8F3" transform="translate(306,241)"/>
<path d="M0 0 C16.71085956 0.73987012 33.35109257 2.43423971 50 4 C50.495 5.98 50.495 5.98 51 8 C40.39375789 7.19661874 29.82545153 6.06450592 19.25 4.9375 C17.47397129 4.74922669 15.69792971 4.56107474 13.921875 4.37304688 C9.61443382 3.91676232 5.30716964 3.45884047 1 3 C0.67 2.01 0.34 1.02 0 0 Z " fill="#FD836D" transform="translate(90,205)"/>
<path d="M0 0 C3.3 0 6.6 0 10 0 C10.38218767 1.65614657 10.71395102 3.32457024 11 5 C10 6 10 6 7.71484375 6.09765625 C6.34005859 6.08025391 6.34005859 6.08025391 4.9375 6.0625 C4.01839844 6.05347656 3.09929687 6.04445313 2.15234375 6.03515625 C1.44207031 6.02355469 0.73179687 6.01195312 0 6 C0 4.02 0 2.04 0 0 Z " fill="#FDF2ED" transform="translate(275,251)"/>
<path d="M0 0 C2.97 0 5.94 0 9 0 C9.33 1.32 9.66 2.64 10 4 C9 5 9 5 6.93359375 5.09765625 C6.10988281 5.08605469 5.28617187 5.07445312 4.4375 5.0625 C3.61121094 5.05347656 2.78492188 5.04445312 1.93359375 5.03515625 C1.29550781 5.02355469 0.65742188 5.01195312 0 5 C0 3.35 0 1.7 0 0 Z " fill="#FDF8F4" transform="translate(275,241)"/>
<path d="M0 0 C2.50298434 2.93828597 3.46930939 5.17902761 4 9 C1.36 9 -1.28 9 -4 9 C-2.94124926 5.59687262 -1.99097846 2.98646769 0 0 Z " fill="#FDE8E1" transform="translate(344,243)"/>
<path d="M0 0 C3.0916909 2.52956528 3.90931332 5.22454612 5 9 C2.36 9 -0.28 9 -3 9 C-2.44271087 5.65626525 -1.64826111 2.96687001 0 0 Z " fill="#FDE9E3" transform="translate(247,243)"/>
<path d="M0 0 C2.91672884 -0.02700675 5.83320677 -0.04684237 8.75 -0.0625 C9.9875 -0.07506836 9.9875 -0.07506836 11.25 -0.08789062 C12.04921875 -0.09111328 12.8484375 -0.09433594 13.671875 -0.09765625 C14.4050293 -0.10289307 15.13818359 -0.10812988 15.89355469 -0.11352539 C18.0461849 0.0024891 19.9314135 0.40926729 22 1 C22 1.66 22 2.32 22 3 C14.6379306 2.5140207 7.30899482 2.02325928 0 1 C0 0.67 0 0.34 0 0 Z " fill="#FD826B" transform="translate(68,281)"/>
<path d="M0 0 C0.33 1.32 0.66 2.64 1 4 C-2.96 3.67 -6.92 3.34 -11 3 C-4.75 -0.125 -4.75 -0.125 0 0 Z " fill="#FD917B" transform="translate(140,209)"/>
<path d="M0 0 C2.64 0 5.28 0 8 0 C8.33 0.99 8.66 1.98 9 3 C6.03 2.67 3.06 2.34 0 2 C0 1.34 0 0.68 0 0 Z " fill="#FD7E67" transform="translate(90,288)"/>
<path d="M0 0 C1.98567708 0.09765625 3.97135417 0.1953125 5.95703125 0.29296875 C4.96703125 0.78796875 4.96703125 0.78796875 3.95703125 1.29296875 C3.95703125 1.95296875 3.95703125 2.61296875 3.95703125 3.29296875 C0.98703125 3.29296875 -1.98296875 3.29296875 -5.04296875 3.29296875 C-2.04296875 0.29296875 -2.04296875 0.29296875 0 0 Z " fill="#FC9A88" transform="translate(113.04296875,206.70703125)"/>
<path d="M0 0 C0.33 0 0.66 0 1 0 C1 2.31 1 4.62 1 7 C0.01 7.33 -0.98 7.66 -2 8 C-2.125 5.125 -2.125 5.125 -2 2 C-1.34 1.34 -0.68 0.68 0 0 Z " fill="#FDF8F4" transform="translate(139,276)"/>
</svg>
