<?xml version="1.0" encoding="UTF-8"?>
<svg version="1.1" viewBox="0 0 2000 2000" width="500" height="500" xmlns="http://www.w3.org/2000/svg">
<path transform="translate(321,843)" d="m0 0h25l31 4 73 9 19 2 5 3 2 2-1 9-6 14-8 16-6 10-6 5-3 1h-18l-30-4-29-4-28-4h-18l-12 5-4 4-1 2v7l3 5v2l5 2 28 12 20 8 30 14 15 9 9 7 10 10 8 14 3 8 1 6v14l-2 13-6 17-7 12-9 10-8 8-16 10-22 10-21 6-19 3-109 14-48 6-30 5-17 2-5-3-3-5v-10l9-36 5-21 5-6 8-5 11-2 96-11 36-5 42-4 12-4 5-3 3-5v-7l-4-5-14-7-21-8-20-7-15-6-17-8-13-9-9-8-7-11-4-9-1-4v-19l3-14 8-18 8-11 4-5h2l1-3 14-10 16-8 13-5 21-5z" fill="#FC7B62"/>
<path transform="translate(232,751)" d="m0 0h7l23 3 114 11 82 8 49 5 13 4 9 7 6 12 1 7-5 24-10 49-7 34-33 165-7 36-10 48-3 15-4 6-4 5-10 6-9 3h-13l-132-18-87-12-1-2 3-5 2-6 19 1 38 4 36 4 41 4 26 3 46 4 15 1 8-4 4-9 5-23 17-85 6-31 7-36 18-89 13-66 4-23-4-9-4-2-37-3-117-12-63-6-42-5h-7l-6 4-4 8-4 22-5 24-5 26-12 58-8 38-5 27-6 29-5 25-4 3-13 2h-9l4-19 5-26 36-180 6-33 4-11 6-9 8-6 10-4z" fill="#FC7B62"/>
<path transform="translate(546,835)" d="m0 0 9 3 9 8 2 9-3 19-6 28-6 31-11 56-8 40-4 22-5 25-8 39-7 36-7 35-6 31-7 14-10 9-13 4h-10l-25-5-52-11-59-12-23-5-46-9-49-9-26-5-3-3 1-8 1-1 11 1 60 10 77 13 50 8 52 9 29 4 8-1 6-4 3-5 7-32 28-140 10-52 8-41 8-40 7-37 5-27z" fill="#FC7B62"/>
<path transform="translate(1085,943)" d="m0 0h56l26 1 14 3 11 6 8 9 4 11v8l-6 12-8 7-4 2 10 5 7 6 5 10 1 3v13l-4 10-4 5-11 7-13 4-14 2h-78l-1-1v-121zm33 24v26l14 1h16l10-1 8-5 3-6-1-7-4-5-10-3zm0 48v11l1 18h40l9-3 5-5 2-5-1-6-3-5-7-4-4-1z" fill="#FC7B62"/>
<path transform="translate(1232,943)" d="m0 0h56l26 2 13 4 14 7 9 7 9 11 6 14 2 10v15l-4 16-8 13-9 9-15 9-16 5-16 2h-67l-1-1v-122zm34 26v73h30l17-4 9-7 6-8 4-11v-14l-4-10-7-9-10-7-11-3z" fill="#FC7B62"/>
<path transform="translate(1670,943)" d="m0 0h33l1 1v42l-1 6h62v-48l4-1 31 1v122l-1 1h-33l-1-1v-49h-62l1 36v13l-1 1h-33l-1-1v-122z" fill="#FC7B62"/>
<path transform="translate(1431,943)" d="m0 0h35l2 1 8 19 17 35 8 16 11 23 5 11 8 16v3h-36l-5-11-4-9v-3h-64l-1 5-7 16-2 2h-35l1-4 11-22 13-28 10-21 9-17 6-14 6-12 2-5zm16 34-13 28-6 13v2h40l-1-4-8-19-10-20z" fill="#FC7B62"/>
<path transform="translate(976,943)" d="m0 0h32l3 3 20 41 14 29 18 37 6 13-1 1h-35l-5-8-6-14-4-1h-59l-3 9-7 14h-35l2-6 8-16 12-25 16-33 13-27 8-16zm14 34-7 15-9 19-3 9h40l-3-9-16-34z" fill="#FC7B62"/>
<path transform="translate(722,941)" d="m0 0h10l19 2 17 5 9 5 1 4-7 15-3 6-15-7-19-4h-14l-10 3-4 4v6l4 5 15 5 27 6 16 7 8 6 7 11 2 6v9l-4 10-9 11-11 7-12 4-18 3h-16l-17-3-16-5-12-6-5-4 2-5 8-13 2-5 18 9 12 4 12 2h13l10-3 6-5 1-4-3-6-4-3-42-10-12-5-11-8-6-9-2-6v-11l5-12 9-10 8-5 12-4z" fill="#FC7B62"/>
<path transform="translate(1582,941)" d="m0 0h16l21 3 13 4 9 5 1 4-7 16-2 5-17-7-17-4h-15l-10 3-3 1-1 9 4 5 12 4 30 7 16 7 9 7 7 12 1 4v9l-4 10-7 9-10 8-14 5-18 3h-17l-20-4-15-5-13-8-1-4 6-8 5-11 5 1 10 6 16 5 13 2h10l9-2 8-5 1-7-3-4v-2l-17-4-31-8-16-8-7-7-5-10-1-9 2-9 6-11 8-7 12-6 12-3z" fill="#FC7B62"/>
<path transform="translate(806,943)" d="m0 0h33l1 1v98h69v24l-1 1h-102l-1-13v-109z" fill="#FC7B62"/>
<path transform="translate(245,796)" d="m0 0h11l68 7 52 5 69 7 38 4 3 4-1 8-3 3-19-1-41-5-176-20-3-1v-7z" fill="#FC7B62"/>
</svg>
