<svg width="200" height="200" viewBox="0 0 200 200" fill="none" xmlns="http://www.w3.org/2000/svg">
  <!-- SlabDash logo - matching original design -->

  <g transform="rotate(-10 100 100)">
    <!-- Shadow/back layer -->
    <rect x="50" y="45" width="100" height="110" rx="10" fill="#FF9B88" opacity="0.25"/>

    <!-- Main card outer border (cream) -->
    <rect x="45" y="40" width="110" height="120" rx="12" fill="#FFF1E3"/>

    <!-- Inner card face (salmon) -->
    <rect x="52" y="47" width="96" height="106" rx="8" fill="#FF9B88"/>

    <!-- The "S" shape - cream color -->
    <g transform="translate(100, 100)">
      <!-- Upper curve -->
      <path d="M -22 -28
               C -15 -32, -5 -32, 2 -28
               C 9 -24, 14 -18, 14 -10
               C 14 -2, 9 3, 2 7
               L -3 11"
            stroke="#FFF1E3"
            stroke-width="12"
            stroke-linecap="round"
            stroke-linejoin="round"
            fill="none"/>

      <!-- Lower curve -->
      <path d="M 3 -11
               L -2 -7
               C -9 -3, -14 2, -14 10
               C -14 18, -9 24, -2 28
               C 5 32, 15 32, 22 28"
            stroke="#FFF1E3"
            stroke-width="12"
            stroke-linecap="round"
            stroke-linejoin="round"
            fill="none"/>
    </g>

    <!-- Small highlight on top edge for depth -->
    <rect x="55" y="50" width="86" height="3" rx="1.5" fill="#FFF1E3" opacity="0.3"/>
  </g>
</svg>
